<?xml version="1.0" encoding="UTF-8"?>
<svg xmlns="http://www.w3.org/2000/svg" xmlns:xlink="http://www.w3.org/1999/xlink" width="24px" height="24px" viewBox="0 0 24 24" version="1.1">
<g id="surface1">
<path style="fill-rule:evenodd;fill:rgb(11.764706%,11.764706%,11.764706%);fill-opacity:0.101961;stroke-width:2.4;stroke-linecap:butt;stroke-linejoin:miter;stroke:rgb(0%,0%,0%);stroke-opacity:1;stroke-miterlimit:4;" d="M 36.6875 1.291667 L 8.291667 10.166667 L 8.291667 115.020833 L 36.6875 126.770833 L 119.270833 112.208333 L 119.270833 14.916667 Z M 36.6875 1.291667 " transform="matrix(0.1875,0,0,0.1875,0,0)"/>
<path style=" stroke:none;fill-rule:evenodd;fill:rgb(12.156863%,12.156863%,12.156863%);fill-opacity:0.101961;" d="M 16.019531 3.796875 L 22.363281 2.796875 L 22.363281 21.039062 L 16.019531 19.617188 Z M 16.019531 3.796875 "/>
<path style=" stroke:none;fill-rule:evenodd;fill:rgb(12.156863%,12.156863%,12.156863%);fill-opacity:0.101961;" d="M 1.554688 1.90625 L 1.554688 21.550781 L 16.019531 19.617188 L 16.019531 3.796875 Z M 1.554688 1.90625 "/>
<path style=" stroke:none;fill-rule:evenodd;fill:rgb(12.156863%,12.156863%,12.156863%);fill-opacity:0.101961;" d="M 1.554688 21.550781 L 6.878906 23.769531 L 22.363281 21.039062 L 16.019531 19.617188 Z M 1.554688 21.550781 "/>
<path style=" stroke:none;fill-rule:evenodd;fill:rgb(12.156863%,12.156863%,12.156863%);fill-opacity:0.101961;" d="M 1.554688 1.90625 L 6.878906 0.242188 L 22.363281 2.796875 L 16.019531 3.796875 Z M 1.554688 1.90625 "/>
<path style=" stroke:none;fill-rule:evenodd;fill:rgb(94.901961%,94.901961%,94.901961%);fill-opacity:1;" d="M 6.878906 0.242188 L 6.878906 23.769531 L 22.363281 21.039062 L 22.363281 2.796875 Z M 6.878906 0.242188 "/>
<path style=" stroke:none;fill-rule:evenodd;fill:rgb(94.901961%,94.901961%,94.901961%);fill-opacity:1;" d="M 1.554688 1.90625 L 6.878906 0.242188 L 6.878906 23.769531 L 1.554688 21.550781 Z M 1.554688 1.90625 "/>
<path style=" stroke:none;fill-rule:nonzero;fill:rgb(0%,0%,0%);fill-opacity:1;" d="M 9.585938 9.980469 L 9.585938 3.3125 C 10.398438 3.292969 10.960938 3.382812 11.316406 3.691406 C 11.738281 4.054688 11.882812 4.703125 11.871094 5.601562 C 11.863281 6.5 11.878906 7.464844 11.882812 8.246094 C 11.886719 9.199219 11.90625 9.921875 10.820312 9.972656 C 10.375 9.988281 10.019531 9.980469 9.585938 9.980469 Z M 11.175781 11.316406 C 11.410156 11.292969 11.652344 11.261719 11.792969 11.179688 C 12.566406 10.734375 13.039062 10.226562 13.039062 8.25 L 13.039062 6.039062 C 13.039062 5.429688 13.0625 4.824219 12.941406 4.226562 C 12.878906 3.929688 12.867188 3.828125 12.636719 3.363281 C 12.332031 2.742188 11.601562 2.039062 10.707031 1.890625 C 9.804688 1.746094 8.988281 1.558594 8.191406 1.472656 L 8.191406 11.347656 C 9.132812 11.355469 10.1875 11.40625 11.175781 11.316406 Z M 21.644531 9.894531 C 21.671875 9.777344 21.75 8.929688 21.605469 8.480469 C 21.449219 7.976562 21.277344 7.582031 20.9375 7.21875 C 20.578125 6.832031 20.109375 6.503906 19.71875 6.207031 C 19.375 5.953125 19.023438 5.648438 19.042969 5.191406 C 19.066406 4.769531 19.339844 4.582031 19.71875 4.554688 C 20.054688 4.53125 20.441406 4.765625 20.796875 4.972656 C 20.796875 4.972656 21.039062 4.1875 21.167969 3.847656 C 21.167969 3.847656 20.949219 3.6875 20.828125 3.628906 C 20.5 3.460938 20.128906 3.292969 19.789062 3.265625 C 19.558594 3.246094 19.128906 3.265625 18.824219 3.46875 C 18.453125 3.71875 18.273438 3.980469 18.203125 4.105469 C 18.035156 4.398438 17.984375 4.78125 17.972656 5.023438 C 17.945312 5.472656 18.089844 5.953125 18.234375 6.253906 C 18.398438 6.582031 18.566406 6.75 18.65625 6.84375 C 19.105469 7.3125 19.792969 7.601562 20.171875 8.019531 C 20.363281 8.230469 20.652344 8.589844 20.6875 8.871094 C 20.769531 9.566406 20.589844 10.324219 19.859375 10.304688 C 19.035156 10.285156 18.894531 9.640625 18.800781 9.164062 C 18.425781 9.207031 18.121094 9.226562 17.796875 9.277344 C 17.808594 9.5 17.816406 9.753906 17.867188 9.949219 C 17.996094 10.441406 18.269531 10.859375 18.664062 11.117188 C 19.0625 11.382812 19.359375 11.535156 19.832031 11.539062 C 20.847656 11.539062 21.453125 10.761719 21.644531 9.894531 Z M 14.609375 8.859375 L 14.609375 5.097656 C 14.609375 4.390625 14.964844 3.96875 15.578125 4.039062 C 16.191406 4.105469 16.566406 4.625 16.566406 5.332031 L 16.566406 9.097656 C 16.566406 9.683594 16.167969 10.164062 15.578125 10.132812 C 14.730469 10.085938 14.609375 9.472656 14.609375 8.859375 Z M 17.601562 9.171875 L 17.601562 5.566406 C 17.601562 4.28125 17.140625 2.792969 15.578125 2.566406 C 13.941406 2.332031 13.484375 3.683594 13.484375 4.859375 L 13.484375 8.625 C 13.484375 10.46875 14.105469 11.417969 15.578125 11.496094 C 16.847656 11.566406 17.601562 10.410156 17.601562 9.171875 Z M 17.449219 20.902344 L 17.910156 20.828125 C 17.910156 20.828125 19.078125 18.3125 19.675781 17.078125 C 19.820312 17.367188 21.144531 20.25 21.144531 20.25 L 21.5625 20.152344 C 21.5625 20.152344 19.960938 16.71875 19.890625 16.574219 C 20.472656 15.316406 21.609375 12.789062 21.609375 12.789062 L 21.214844 12.753906 C 21.214844 12.753906 19.710938 16.035156 19.675781 16.105469 C 19.640625 16.035156 18.171875 12.828125 18.171875 12.828125 L 17.78125 12.828125 C 17.78125 12.828125 19.390625 16.429688 19.460938 16.574219 C 18.792969 18.019531 18.148438 19.472656 17.449219 20.902344 Z M 13.882812 19.589844 C 13.878906 19.476562 13.882812 15.542969 13.882812 15.449219 C 13.882812 14.742188 14.003906 14.023438 14.511719 13.589844 C 14.84375 13.34375 15.195312 13.191406 15.578125 13.207031 C 16.585938 13.242188 17.039062 14.039062 17.039062 15.214844 L 17.039062 18.457031 C 17.039062 19.589844 16.960938 19.722656 16.621094 20.1875 C 16.441406 20.410156 16.199219 20.582031 15.996094 20.683594 C 15.792969 20.78125 15.699219 20.800781 15.488281 20.824219 C 15.28125 20.847656 15.132812 20.867188 14.796875 20.761719 C 14.222656 20.585938 13.910156 20.226562 13.882812 19.589844 Z M 16.476562 20.925781 C 17.203125 20.351562 17.460938 19.453125 17.460938 18.648438 L 17.460938 15.121094 C 17.460938 14.175781 17.335938 13.59375 16.609375 13.019531 C 16.292969 12.789062 15.976562 12.699219 15.578125 12.707031 C 14.777344 12.71875 14.34375 12.980469 14 13.394531 C 13.550781 13.949219 13.460938 14.765625 13.460938 15.449219 L 13.460938 19.636719 C 13.460938 20.34375 13.957031 21.191406 14.882812 21.324219 C 15.46875 21.378906 16.027344 21.269531 16.476562 20.925781 Z M 9.585938 16.789062 L 9.585938 14.484375 C 10.558594 14.457031 11.390625 14.421875 11.390625 15.496094 C 11.390625 16.578125 10.574219 16.796875 9.585938 16.789062 Z M 9.585938 18.179688 L 10.929688 18.171875 C 11.226562 18.171875 11.527344 18.386719 11.652344 18.597656 C 11.714844 18.699219 11.773438 18.929688 11.78125 19.253906 C 11.789062 19.507812 11.785156 19.710938 11.726562 19.929688 C 11.605469 20.351562 11.21875 20.574219 10.832031 20.695312 C 10.449219 20.816406 9.886719 20.910156 9.585938 20.9375 C 9.585938 20.039062 9.585938 19.007812 9.585938 18.179688 Z M 11.117188 21.953125 C 11.621094 21.828125 12.117188 21.523438 12.4375 21.179688 C 12.707031 20.894531 12.878906 20.515625 12.988281 20.175781 C 13.101562 19.824219 13.132812 19.496094 13.132812 19.121094 C 13.132812 18.917969 13.109375 18.558594 13.050781 18.28125 C 12.917969 17.632812 12.589844 17.285156 12.097656 17.003906 C 12.132812 16.9375 12.367188 16.699219 12.570312 16.199219 C 12.769531 15.695312 12.753906 15.410156 12.753906 15.167969 C 12.753906 14.523438 12.617188 13.878906 12.121094 13.523438 C 11.757812 13.257812 11.53125 13.109375 10.859375 13.046875 C 10.1875 12.984375 9.1875 13.03125 8.191406 13.042969 L 8.191406 22.414062 C 9.195312 22.265625 10.238281 22.167969 11.117188 21.953125 Z M 11.117188 21.953125 "/>
<path style=" stroke:none;fill-rule:nonzero;fill:rgb(0%,61.568627%,100%);fill-opacity:1;" d="M 1.554688 1.90625 L 6.878906 0.242188 L 6.871094 6.789062 L 1.554688 7.371094 Z M 1.554688 1.90625 "/>
<path style=" stroke:none;fill-rule:nonzero;fill:rgb(0%,100%,1.568627%);fill-opacity:1;" d="M 1.554688 7.371094 L 1.554688 11.789062 L 6.871094 12.046875 L 6.871094 6.789062 Z M 1.554688 7.371094 "/>
<path style=" stroke:none;fill-rule:nonzero;fill:rgb(100%,98.039216%,0%);fill-opacity:1;" d="M 1.554688 11.789062 L 1.554688 16.671875 L 6.878906 17.96875 L 6.871094 12.046875 Z M 1.554688 11.789062 "/>
<path style=" stroke:none;fill-rule:nonzero;fill:rgb(100%,0%,20.784314%);fill-opacity:1;" d="M 1.554688 21.566406 L 1.554688 16.671875 L 6.878906 17.96875 L 6.878906 23.769531 Z M 1.554688 21.566406 "/>
</g>
</svg>
