<?xml version="1.0" encoding="UTF-8"?>
<svg xmlns="http://www.w3.org/2000/svg" xmlns:xlink="http://www.w3.org/1999/xlink" width="32px" height="32px" viewBox="0 0 32 32" version="1.1">
<g id="surface1">
<path style="fill-rule:evenodd;fill:rgb(11.764706%,11.764706%,11.764706%);fill-opacity:0.101961;stroke-width:2.4;stroke-linecap:butt;stroke-linejoin:miter;stroke:rgb(0%,0%,0%);stroke-opacity:1;stroke-miterlimit:4;" d="M 36.6875 1.28125 L 8.296875 10.171875 L 8.296875 115.03125 L 36.6875 126.78125 L 119.28125 112.21875 L 119.28125 14.90625 Z M 36.6875 1.28125 " transform="matrix(0.25,0,0,0.25,0,0)"/>
<path style=" stroke:none;fill-rule:evenodd;fill:rgb(12.156863%,12.156863%,12.156863%);fill-opacity:0.101961;" d="M 21.359375 5.0625 L 29.820312 3.726562 L 29.820312 28.054688 L 21.359375 26.15625 Z M 21.359375 5.0625 "/>
<path style=" stroke:none;fill-rule:evenodd;fill:rgb(12.156863%,12.156863%,12.156863%);fill-opacity:0.101961;" d="M 2.074219 2.542969 L 2.074219 28.734375 L 21.359375 26.15625 L 21.359375 5.0625 Z M 2.074219 2.542969 "/>
<path style=" stroke:none;fill-rule:evenodd;fill:rgb(12.156863%,12.156863%,12.156863%);fill-opacity:0.101961;" d="M 2.074219 28.734375 L 9.171875 31.695312 L 29.820312 28.054688 L 21.359375 26.15625 Z M 2.074219 28.734375 "/>
<path style=" stroke:none;fill-rule:evenodd;fill:rgb(12.156863%,12.156863%,12.156863%);fill-opacity:0.101961;" d="M 2.074219 2.542969 L 9.171875 0.320312 L 29.820312 3.726562 L 21.359375 5.0625 Z M 2.074219 2.542969 "/>
<path style=" stroke:none;fill-rule:evenodd;fill:rgb(94.901961%,94.901961%,94.901961%);fill-opacity:1;" d="M 9.171875 0.320312 L 9.171875 31.695312 L 29.820312 28.054688 L 29.820312 3.726562 Z M 9.171875 0.320312 "/>
<path style=" stroke:none;fill-rule:evenodd;fill:rgb(94.901961%,94.901961%,94.901961%);fill-opacity:1;" d="M 2.074219 2.542969 L 9.171875 0.320312 L 9.171875 31.695312 L 2.074219 28.734375 Z M 2.074219 2.542969 "/>
<path style=" stroke:none;fill-rule:nonzero;fill:rgb(0%,0%,0%);fill-opacity:1;" d="M 12.78125 13.304688 L 12.78125 4.414062 C 13.863281 4.390625 14.613281 4.511719 15.089844 4.921875 C 15.652344 5.40625 15.84375 6.273438 15.828125 7.46875 C 15.820312 8.664062 15.835938 9.953125 15.84375 10.996094 C 15.847656 12.265625 15.875 13.230469 14.425781 13.296875 C 13.832031 13.320312 13.359375 13.308594 12.78125 13.304688 Z M 14.898438 15.085938 C 15.214844 15.054688 15.535156 15.015625 15.722656 14.90625 C 16.757812 14.3125 17.382812 13.632812 17.382812 11 L 17.382812 8.050781 C 17.382812 7.238281 17.417969 6.429688 17.257812 5.636719 C 17.171875 5.238281 17.15625 5.105469 16.851562 4.484375 C 16.441406 3.65625 15.46875 2.71875 14.273438 2.523438 C 13.074219 2.328125 11.984375 2.078125 10.921875 1.964844 L 10.921875 15.132812 C 12.175781 15.140625 13.582031 15.210938 14.898438 15.085938 Z M 28.859375 13.195312 C 28.898438 13.039062 29 11.90625 28.808594 11.304688 C 28.597656 10.636719 28.367188 10.109375 27.917969 9.625 C 27.4375 9.109375 26.8125 8.671875 26.289062 8.277344 C 25.835938 7.9375 25.363281 7.53125 25.390625 6.921875 C 25.421875 6.359375 25.785156 6.109375 26.292969 6.074219 C 26.742188 6.042969 27.257812 6.351562 27.726562 6.628906 C 27.726562 6.628906 28.050781 5.585938 28.222656 5.132812 C 28.222656 5.132812 27.929688 4.917969 27.769531 4.835938 C 27.332031 4.617188 26.839844 4.390625 26.382812 4.351562 C 26.078125 4.328125 25.503906 4.355469 25.101562 4.625 C 24.601562 4.960938 24.363281 5.308594 24.269531 5.476562 C 24.046875 5.867188 23.980469 6.375 23.960938 6.699219 C 23.929688 7.296875 24.117188 7.9375 24.3125 8.335938 C 24.53125 8.773438 24.753906 9 24.875 9.125 C 25.472656 9.75 26.390625 10.136719 26.898438 10.695312 C 27.148438 10.972656 27.539062 11.453125 27.582031 11.828125 C 27.691406 12.753906 27.453125 13.765625 26.480469 13.742188 C 25.378906 13.710938 25.191406 12.851562 25.070312 12.21875 C 24.570312 12.277344 24.160156 12.304688 23.726562 12.367188 C 23.746094 12.667969 23.753906 13.007812 23.824219 13.265625 C 23.996094 13.921875 24.359375 14.480469 24.882812 14.824219 C 25.417969 15.175781 25.8125 15.382812 26.445312 15.382812 C 27.796875 15.386719 28.605469 14.351562 28.859375 13.195312 Z M 19.476562 11.8125 L 19.476562 6.796875 C 19.476562 5.851562 19.953125 5.292969 20.773438 5.382812 C 21.585938 5.472656 22.089844 6.167969 22.089844 7.109375 L 22.089844 12.128906 C 22.089844 12.910156 21.558594 13.554688 20.773438 13.507812 C 19.640625 13.445312 19.476562 12.628906 19.476562 11.8125 Z M 23.46875 12.230469 L 23.46875 7.421875 C 23.46875 5.707031 22.855469 3.722656 20.773438 3.421875 C 18.585938 3.109375 17.980469 4.914062 17.980469 6.480469 L 17.980469 11.5 C 17.980469 13.960938 18.808594 15.222656 20.773438 15.328125 C 22.464844 15.421875 23.46875 13.878906 23.46875 12.230469 Z M 23.265625 27.871094 L 23.878906 27.773438 C 23.878906 27.773438 25.4375 24.414062 26.234375 22.773438 C 26.425781 23.15625 28.191406 27 28.191406 27 L 28.75 26.867188 C 28.75 26.867188 26.617188 22.292969 26.519531 22.101562 C 27.296875 20.421875 28.8125 17.054688 28.8125 17.054688 L 28.285156 17.007812 C 28.285156 17.007812 26.28125 21.378906 26.234375 21.476562 C 26.1875 21.378906 24.230469 17.101562 24.230469 17.101562 L 23.707031 17.101562 C 23.707031 17.101562 25.851562 21.90625 25.949219 22.101562 C 25.058594 24.023438 24.195312 25.964844 23.265625 27.871094 Z M 18.511719 26.121094 C 18.507812 25.96875 18.511719 20.726562 18.511719 20.597656 C 18.511719 19.65625 18.671875 18.695312 19.347656 18.121094 C 19.789062 17.789062 20.257812 17.589844 20.773438 17.609375 C 22.117188 17.65625 22.71875 18.71875 22.71875 20.285156 L 22.71875 24.609375 C 22.71875 26.121094 22.617188 26.296875 22.160156 26.917969 C 21.921875 27.210938 21.597656 27.445312 21.328125 27.578125 C 21.058594 27.710938 20.933594 27.734375 20.652344 27.765625 C 20.375 27.796875 20.179688 27.824219 19.726562 27.683594 C 18.964844 27.445312 18.546875 26.96875 18.511719 26.121094 Z M 21.96875 27.898438 C 22.9375 27.136719 23.28125 25.9375 23.28125 24.867188 L 23.28125 20.160156 C 23.28125 18.902344 23.117188 18.125 22.144531 17.359375 C 21.722656 17.050781 21.304688 16.933594 20.773438 16.945312 C 19.703125 16.960938 19.125 17.308594 18.667969 17.859375 C 18.070312 18.597656 17.945312 19.6875 17.945312 20.597656 L 17.945312 26.183594 C 17.945312 27.125 18.609375 28.257812 19.84375 28.433594 C 20.625 28.503906 21.371094 28.359375 21.96875 27.898438 Z M 12.78125 22.386719 L 12.78125 19.3125 C 14.078125 19.277344 15.1875 19.226562 15.1875 20.664062 C 15.1875 22.105469 14.097656 22.394531 12.78125 22.386719 Z M 12.78125 24.238281 L 14.574219 24.230469 C 14.96875 24.226562 15.371094 24.515625 15.539062 24.796875 C 15.621094 24.933594 15.695312 25.242188 15.710938 25.671875 C 15.71875 26.007812 15.714844 26.28125 15.632812 26.574219 C 15.476562 27.136719 14.957031 27.429688 14.441406 27.59375 C 13.933594 27.753906 13.179688 27.878906 12.78125 27.914062 C 12.78125 26.71875 12.78125 25.34375 12.78125 24.238281 Z M 14.820312 29.269531 C 15.496094 29.101562 16.15625 28.695312 16.585938 28.242188 C 16.941406 27.859375 17.171875 27.355469 17.320312 26.898438 C 17.46875 26.429688 17.507812 25.996094 17.507812 25.492188 C 17.507812 25.222656 17.476562 24.746094 17.398438 24.375 C 17.226562 23.507812 16.789062 23.046875 16.128906 22.671875 C 16.179688 22.582031 16.492188 22.265625 16.757812 21.597656 C 17.023438 20.929688 17.007812 20.546875 17.007812 20.222656 C 17.007812 19.367188 16.820312 18.507812 16.164062 18.03125 C 15.675781 17.679688 15.375 17.480469 14.476562 17.398438 C 13.582031 17.3125 12.25 17.375 10.921875 17.390625 L 10.921875 29.882812 C 12.261719 29.6875 13.648438 29.558594 14.820312 29.269531 Z M 14.820312 29.269531 "/>
<path style=" stroke:none;fill-rule:nonzero;fill:rgb(0%,61.568627%,100%);fill-opacity:1;" d="M 2.074219 2.542969 L 9.171875 0.320312 L 9.164062 9.054688 L 2.074219 9.828125 Z M 2.074219 2.542969 "/>
<path style=" stroke:none;fill-rule:nonzero;fill:rgb(0%,100%,1.568627%);fill-opacity:1;" d="M 2.074219 9.828125 L 2.074219 15.71875 L 9.160156 16.0625 L 9.164062 9.054688 Z M 2.074219 9.828125 "/>
<path style=" stroke:none;fill-rule:nonzero;fill:rgb(100%,98.039216%,0%);fill-opacity:1;" d="M 2.074219 15.71875 L 2.074219 22.230469 L 9.171875 23.960938 L 9.160156 16.0625 Z M 2.074219 15.71875 "/>
<path style=" stroke:none;fill-rule:nonzero;fill:rgb(100%,0%,20.784314%);fill-opacity:1;" d="M 2.074219 28.757812 L 2.074219 22.230469 L 9.171875 23.960938 L 9.171875 31.695312 Z M 2.074219 28.757812 "/>
</g>
</svg>
