<?xml version="1.0" encoding="UTF-8"?>
<svg xmlns="http://www.w3.org/2000/svg" xmlns:xlink="http://www.w3.org/1999/xlink" width="128px" height="128px" viewBox="0 0 128 128" version="1.1">
<g id="surface1">
<path style="fill-rule:evenodd;fill:rgb(11.764706%,11.764706%,11.764706%);fill-opacity:0.101961;stroke-width:2.4;stroke-linecap:butt;stroke-linejoin:miter;stroke:rgb(0%,0%,0%);stroke-opacity:1;stroke-miterlimit:4;" d="M 36.679688 1.28125 L 8.292969 10.175781 L 8.292969 115.023438 L 36.679688 126.773438 L 119.277344 112.210938 L 119.277344 14.90625 Z M 36.679688 1.28125 "/>
<path style=" stroke:none;fill-rule:evenodd;fill:rgb(12.156863%,12.156863%,12.156863%);fill-opacity:0.101961;" d="M 85.433594 20.257812 L 119.277344 14.90625 L 119.277344 112.210938 L 85.433594 104.621094 Z M 85.433594 20.257812 "/>
<path style=" stroke:none;fill-rule:evenodd;fill:rgb(12.156863%,12.156863%,12.156863%);fill-opacity:0.101961;" d="M 8.292969 10.175781 L 8.292969 114.945312 L 85.433594 104.621094 L 85.433594 20.257812 Z M 8.292969 10.175781 "/>
<path style=" stroke:none;fill-rule:evenodd;fill:rgb(12.156863%,12.156863%,12.156863%);fill-opacity:0.101961;" d="M 8.292969 114.945312 L 36.679688 126.773438 L 119.277344 112.210938 L 85.433594 104.621094 Z M 8.292969 114.945312 "/>
<path style=" stroke:none;fill-rule:evenodd;fill:rgb(12.156863%,12.156863%,12.156863%);fill-opacity:0.101961;" d="M 8.292969 10.175781 L 36.679688 1.28125 L 119.277344 14.90625 L 85.433594 20.257812 Z M 8.292969 10.175781 "/>
<path style=" stroke:none;fill-rule:evenodd;fill:rgb(94.901961%,94.901961%,94.901961%);fill-opacity:1;" d="M 36.679688 1.28125 L 36.679688 126.773438 L 119.277344 112.210938 L 119.277344 14.90625 Z M 36.679688 1.28125 "/>
<path style=" stroke:none;fill-rule:evenodd;fill:rgb(94.901961%,94.901961%,94.901961%);fill-opacity:1;" d="M 8.292969 10.175781 L 36.679688 1.28125 L 36.679688 126.773438 L 8.292969 114.945312 Z M 8.292969 10.175781 "/>
<path style=" stroke:none;fill-rule:nonzero;fill:rgb(0%,0%,0%);fill-opacity:1;" d="M 51.125 53.21875 L 51.125 17.65625 C 55.449219 17.570312 58.453125 18.050781 60.359375 19.6875 C 62.613281 21.621094 63.367188 25.085938 63.320312 29.875 C 63.273438 34.660156 63.347656 39.8125 63.367188 43.980469 C 63.394531 49.066406 63.503906 52.925781 57.699219 53.1875 C 55.332031 53.277344 53.4375 53.230469 51.125 53.21875 Z M 59.597656 60.347656 C 60.855469 60.226562 62.140625 60.054688 62.890625 59.625 C 67.023438 57.242188 69.53125 54.535156 69.53125 43.996094 L 69.53125 32.199219 C 69.53125 28.953125 69.675781 25.726562 69.023438 22.542969 C 68.695312 20.949219 68.621094 20.421875 67.398438 17.9375 C 65.769531 14.632812 61.878906 10.867188 57.101562 10.09375 C 52.300781 9.316406 47.9375 8.304688 43.679688 7.855469 L 43.679688 60.527344 C 48.699219 60.5625 54.328125 60.84375 59.597656 60.347656 Z M 115.445312 52.777344 C 115.585938 52.152344 115.996094 47.628906 115.234375 45.222656 C 114.390625 42.546875 113.476562 40.429688 111.667969 38.496094 C 109.742188 36.4375 107.253906 34.679688 105.15625 33.113281 C 103.34375 31.757812 101.449219 30.125 101.570312 27.683594 C 101.679688 25.433594 103.140625 24.4375 105.171875 24.292969 C 106.964844 24.167969 109.023438 25.414062 110.90625 26.511719 C 110.90625 26.511719 112.207031 22.34375 112.894531 20.523438 C 112.894531 20.523438 111.722656 19.675781 111.082031 19.351562 C 109.324219 18.460938 107.355469 17.570312 105.53125 17.414062 C 104.308594 17.3125 102.011719 17.421875 100.402344 18.5 C 98.414062 19.839844 97.453125 21.238281 97.074219 21.902344 C 96.179688 23.460938 95.917969 25.496094 95.847656 26.792969 C 95.714844 29.195312 96.472656 31.753906 97.253906 33.347656 C 98.117188 35.101562 99.011719 35.996094 99.492188 36.5 C 101.886719 39.003906 105.566406 40.542969 107.585938 42.773438 C 108.601562 43.894531 110.152344 45.804688 110.328125 47.3125 C 110.761719 51.019531 109.820312 55.0625 105.925781 54.964844 C 101.511719 54.851562 100.769531 51.414062 100.277344 48.882812 C 98.273438 49.105469 96.640625 49.214844 94.910156 49.472656 C 94.980469 50.671875 95.019531 52.023438 95.296875 53.066406 C 95.988281 55.683594 97.429688 57.921875 99.535156 59.296875 C 101.675781 60.699219 103.25 61.527344 105.777344 61.535156 C 111.195312 61.550781 114.421875 57.402344 115.445312 52.777344 Z M 77.914062 47.257812 L 77.914062 27.179688 C 77.914062 23.414062 79.816406 21.175781 83.085938 21.53125 C 86.347656 21.890625 88.355469 24.671875 88.355469 28.433594 L 88.355469 48.515625 C 88.355469 51.644531 86.234375 54.210938 83.085938 54.035156 C 78.566406 53.785156 77.914062 50.519531 77.914062 47.257812 Z M 93.878906 48.925781 L 93.878906 29.691406 C 93.878906 22.824219 91.421875 14.886719 83.085938 13.691406 C 74.347656 12.4375 71.917969 19.652344 71.917969 25.925781 L 71.917969 46.003906 C 71.917969 55.84375 75.238281 60.890625 83.085938 61.3125 C 89.863281 61.679688 93.878906 55.511719 93.878906 48.925781 Z M 93.070312 111.488281 L 95.519531 111.09375 C 95.519531 111.09375 101.742188 97.65625 104.9375 91.089844 C 105.699219 92.628906 112.761719 108.007812 112.761719 108.007812 L 115.003906 107.476562 C 115.003906 107.476562 106.464844 89.167969 106.082031 88.398438 C 109.179688 81.683594 115.242188 68.214844 115.242188 68.214844 L 113.140625 68.023438 C 113.140625 68.023438 105.128906 85.515625 104.9375 85.898438 C 104.746094 85.515625 96.921875 68.40625 96.921875 68.40625 L 94.824219 68.40625 C 94.824219 68.40625 103.410156 87.628906 103.792969 88.398438 C 100.234375 96.101562 96.785156 103.859375 93.070312 111.488281 Z M 74.050781 104.480469 C 74.023438 103.878906 74.050781 82.898438 74.050781 82.394531 C 74.050781 78.632812 74.683594 74.789062 77.390625 72.480469 C 79.160156 71.160156 81.039062 70.363281 83.085938 70.433594 C 88.46875 70.621094 90.867188 74.867188 90.867188 81.140625 L 90.867188 98.441406 C 90.867188 104.480469 90.460938 105.191406 88.636719 107.675781 C 87.695312 108.847656 86.386719 109.777344 85.308594 110.308594 C 84.230469 110.835938 83.734375 110.945312 82.613281 111.0625 C 81.496094 111.179688 80.710938 111.292969 78.910156 110.734375 C 75.859375 109.789062 74.191406 107.867188 74.050781 104.480469 Z M 87.871094 111.601562 C 91.75 108.546875 93.125 103.742188 93.125 99.464844 L 93.125 80.640625 C 93.125 75.613281 92.464844 72.507812 88.578125 69.445312 C 86.886719 68.203125 85.210938 67.738281 83.085938 67.773438 C 78.820312 67.839844 76.507812 69.238281 74.675781 71.433594 C 72.273438 74.394531 71.789062 78.746094 71.789062 82.394531 L 71.789062 104.734375 C 71.789062 108.496094 74.433594 113.027344 79.371094 113.734375 C 82.5 114.019531 85.480469 113.4375 87.871094 111.601562 Z M 51.125 89.550781 L 51.125 77.25 C 56.304688 77.105469 60.746094 76.90625 60.746094 82.648438 C 60.746094 88.417969 56.386719 89.578125 51.125 89.550781 Z M 51.125 96.953125 L 58.300781 96.917969 C 59.882812 96.910156 61.484375 98.054688 62.152344 99.183594 C 62.480469 99.738281 62.78125 100.964844 62.839844 102.695312 C 62.882812 104.039062 62.855469 105.132812 62.53125 106.292969 C 61.902344 108.546875 59.824219 109.726562 57.765625 110.378906 C 55.730469 111.019531 52.71875 111.511719 51.125 111.65625 C 51.125 106.875 51.125 101.382812 51.125 96.953125 Z M 59.289062 117.074219 C 61.980469 116.410156 64.625 114.789062 66.335938 112.960938 C 67.765625 111.429688 68.683594 109.425781 69.273438 107.601562 C 69.882812 105.722656 70.035156 103.980469 70.035156 101.972656 C 70.035156 100.886719 69.90625 98.980469 69.601562 97.492188 C 68.898438 94.035156 67.148438 92.195312 64.511719 90.679688 C 64.714844 90.324219 65.964844 89.070312 67.03125 86.390625 C 68.097656 83.710938 68.027344 82.183594 68.027344 80.890625 C 68.027344 77.46875 67.28125 74.023438 64.652344 72.121094 C 62.707031 70.710938 61.496094 69.917969 57.914062 69.589844 C 54.328125 69.257812 49.003906 69.507812 43.679688 69.5625 L 43.679688 119.539062 C 49.050781 118.75 54.597656 118.238281 59.289062 117.074219 Z M 59.289062 117.074219 "/>
<path style=" stroke:none;fill-rule:nonzero;fill:rgb(0%,61.568627%,100%);fill-opacity:1;" d="M 8.292969 10.175781 L 36.679688 1.28125 L 36.652344 36.214844 L 8.292969 39.3125 Z M 8.292969 10.175781 "/>
<path style=" stroke:none;fill-rule:nonzero;fill:rgb(0%,100%,1.568627%);fill-opacity:1;" d="M 8.292969 39.3125 L 8.292969 62.875 L 36.644531 64.25 L 36.652344 36.214844 Z M 8.292969 39.3125 "/>
<path style=" stroke:none;fill-rule:nonzero;fill:rgb(100%,98.039216%,0%);fill-opacity:1;" d="M 8.292969 62.875 L 8.292969 88.921875 L 36.683594 95.835938 L 36.644531 64.25 Z M 8.292969 62.875 "/>
<path style=" stroke:none;fill-rule:nonzero;fill:rgb(100%,0%,20.784314%);fill-opacity:1;" d="M 8.292969 115.023438 L 8.292969 88.921875 L 36.683594 95.835938 L 36.679688 126.773438 Z M 8.292969 115.023438 "/>
</g>
</svg>
