<?xml version="1.0" encoding="UTF-8"?>
<svg xmlns="http://www.w3.org/2000/svg" xmlns:xlink="http://www.w3.org/1999/xlink" width="16px" height="16px" viewBox="0 0 16 16" version="1.1">
<g id="surface1">
<path style="fill-rule:evenodd;fill:rgb(11.764706%,11.764706%,11.764706%);fill-opacity:0.101961;stroke-width:2.4;stroke-linecap:butt;stroke-linejoin:miter;stroke:rgb(0%,0%,0%);stroke-opacity:1;stroke-miterlimit:4;" d="M 36.6875 1.28125 L 8.28125 10.1875 L 8.28125 115.03125 L 36.6875 126.78125 L 119.28125 112.21875 L 119.28125 14.90625 Z M 36.6875 1.28125 " transform="matrix(0.125,0,0,0.125,0,0)"/>
<path style=" stroke:none;fill-rule:evenodd;fill:rgb(12.156863%,12.156863%,12.156863%);fill-opacity:0.101961;" d="M 10.679688 2.53125 L 14.910156 1.863281 L 14.910156 14.027344 L 10.679688 13.078125 Z M 10.679688 2.53125 "/>
<path style=" stroke:none;fill-rule:evenodd;fill:rgb(12.156863%,12.156863%,12.156863%);fill-opacity:0.101961;" d="M 1.035156 1.273438 L 1.035156 14.367188 L 10.679688 13.078125 L 10.679688 2.53125 Z M 1.035156 1.273438 "/>
<path style=" stroke:none;fill-rule:evenodd;fill:rgb(12.156863%,12.156863%,12.156863%);fill-opacity:0.101961;" d="M 1.035156 14.367188 L 4.585938 15.847656 L 14.910156 14.027344 L 10.679688 13.078125 Z M 1.035156 14.367188 "/>
<path style=" stroke:none;fill-rule:evenodd;fill:rgb(12.156863%,12.156863%,12.156863%);fill-opacity:0.101961;" d="M 1.035156 1.273438 L 4.585938 0.160156 L 14.910156 1.863281 L 10.679688 2.53125 Z M 1.035156 1.273438 "/>
<path style=" stroke:none;fill-rule:evenodd;fill:rgb(94.901961%,94.901961%,94.901961%);fill-opacity:1;" d="M 4.585938 0.160156 L 4.585938 15.847656 L 14.910156 14.027344 L 14.910156 1.863281 Z M 4.585938 0.160156 "/>
<path style=" stroke:none;fill-rule:evenodd;fill:rgb(94.901961%,94.901961%,94.901961%);fill-opacity:1;" d="M 1.035156 1.273438 L 4.585938 0.160156 L 4.585938 15.847656 L 1.035156 14.367188 Z M 1.035156 1.273438 "/>
<path style=" stroke:none;fill-rule:nonzero;fill:rgb(0%,0%,0%);fill-opacity:1;" d="M 6.390625 6.652344 L 6.390625 2.207031 C 6.929688 2.195312 7.304688 2.257812 7.546875 2.460938 C 7.828125 2.703125 7.921875 3.136719 7.914062 3.734375 C 7.910156 4.332031 7.917969 4.976562 7.921875 5.496094 C 7.925781 6.132812 7.9375 6.617188 7.210938 6.648438 C 6.917969 6.660156 6.679688 6.652344 6.390625 6.652344 Z M 7.449219 7.542969 C 7.605469 7.527344 7.765625 7.507812 7.859375 7.453125 C 8.378906 7.15625 8.691406 6.816406 8.691406 5.5 L 8.691406 4.023438 C 8.691406 3.617188 8.710938 3.214844 8.628906 2.816406 C 8.585938 2.617188 8.578125 2.554688 8.425781 2.242188 C 8.222656 1.828125 7.734375 1.359375 7.136719 1.261719 C 6.539062 1.164062 5.992188 1.039062 5.460938 0.980469 L 5.460938 7.566406 C 6.085938 7.570312 6.792969 7.605469 7.449219 7.542969 Z M 14.429688 6.597656 C 14.449219 6.519531 14.5 5.953125 14.40625 5.652344 C 14.300781 5.320312 14.183594 5.054688 13.957031 4.8125 C 13.71875 4.554688 13.40625 4.335938 13.144531 4.140625 C 12.917969 3.96875 12.679688 3.765625 12.695312 3.460938 C 12.710938 3.179688 12.894531 3.054688 13.144531 3.035156 C 13.371094 3.019531 13.628906 3.175781 13.863281 3.3125 C 13.863281 3.3125 14.027344 2.792969 14.113281 2.566406 C 14.113281 2.566406 13.964844 2.460938 13.886719 2.417969 C 13.664062 2.308594 13.417969 2.195312 13.191406 2.175781 C 13.039062 2.164062 12.75 2.179688 12.550781 2.3125 C 12.300781 2.480469 12.183594 2.65625 12.132812 2.738281 C 12.023438 2.933594 11.988281 3.1875 11.980469 3.347656 C 11.964844 3.648438 12.058594 3.96875 12.15625 4.167969 C 12.265625 4.386719 12.375 4.5 12.4375 4.5625 C 12.734375 4.875 13.195312 5.066406 13.449219 5.347656 C 13.574219 5.488281 13.769531 5.726562 13.789062 5.914062 C 13.84375 6.378906 13.726562 6.882812 13.242188 6.871094 C 12.6875 6.855469 12.597656 6.425781 12.535156 6.109375 C 12.285156 6.136719 12.082031 6.152344 11.863281 6.183594 C 11.871094 6.335938 11.878906 6.503906 11.914062 6.632812 C 12 6.960938 12.179688 7.242188 12.441406 7.414062 C 12.710938 7.585938 12.90625 7.691406 13.222656 7.691406 C 13.898438 7.695312 14.304688 7.175781 14.429688 6.597656 Z M 9.738281 5.90625 L 9.738281 3.398438 C 9.738281 2.925781 9.976562 2.648438 10.386719 2.691406 C 10.792969 2.734375 11.042969 3.085938 11.042969 3.554688 L 11.042969 6.0625 C 11.042969 6.457031 10.78125 6.777344 10.386719 6.753906 C 9.820312 6.722656 9.738281 6.316406 9.738281 5.90625 Z M 11.734375 6.117188 L 11.734375 3.710938 C 11.734375 2.851562 11.429688 1.859375 10.386719 1.710938 C 9.292969 1.554688 8.988281 2.457031 8.988281 3.242188 L 8.988281 5.75 C 8.988281 6.980469 9.40625 7.609375 10.386719 7.664062 C 11.234375 7.710938 11.734375 6.9375 11.734375 6.117188 Z M 11.632812 13.9375 L 11.941406 13.886719 C 11.941406 13.886719 12.71875 12.207031 13.117188 11.386719 C 13.210938 11.578125 14.09375 13.5 14.09375 13.5 L 14.375 13.433594 C 14.375 13.433594 13.308594 11.144531 13.261719 11.050781 C 13.648438 10.210938 14.40625 8.527344 14.40625 8.527344 L 14.144531 8.503906 C 14.144531 8.503906 13.140625 10.691406 13.117188 10.738281 C 13.09375 10.691406 12.117188 8.550781 12.117188 8.550781 L 11.851562 8.550781 C 11.851562 8.550781 12.925781 10.953125 12.972656 11.050781 C 12.53125 12.011719 12.097656 12.980469 11.632812 13.9375 Z M 9.257812 13.058594 C 9.253906 12.984375 9.257812 10.363281 9.257812 10.300781 C 9.257812 9.828125 9.335938 9.347656 9.675781 9.058594 C 9.894531 8.894531 10.128906 8.796875 10.386719 8.804688 C 11.058594 8.828125 11.359375 9.359375 11.359375 10.144531 L 11.359375 12.304688 C 11.359375 13.058594 11.308594 13.148438 11.078125 13.460938 C 10.960938 13.605469 10.796875 13.722656 10.664062 13.789062 C 10.527344 13.855469 10.46875 13.867188 10.328125 13.882812 C 10.1875 13.898438 10.089844 13.910156 9.863281 13.84375 C 9.480469 13.722656 9.273438 13.484375 9.257812 13.058594 Z M 10.984375 13.949219 C 11.46875 13.570312 11.640625 12.96875 11.640625 12.433594 L 11.640625 10.082031 C 11.640625 9.453125 11.558594 9.0625 11.070312 8.679688 C 10.859375 8.527344 10.652344 8.46875 10.386719 8.472656 C 9.851562 8.480469 9.5625 8.65625 9.335938 8.929688 C 9.035156 9.300781 8.972656 9.84375 8.972656 10.300781 L 8.972656 13.09375 C 8.972656 13.5625 9.304688 14.128906 9.921875 14.21875 C 10.3125 14.253906 10.683594 14.179688 10.984375 13.949219 Z M 6.390625 11.195312 L 6.390625 9.65625 C 7.039062 9.636719 7.59375 9.613281 7.59375 10.332031 C 7.59375 11.050781 7.046875 11.195312 6.390625 11.195312 Z M 6.390625 12.121094 L 7.289062 12.113281 C 7.484375 12.113281 7.6875 12.257812 7.769531 12.398438 C 7.808594 12.46875 7.847656 12.621094 7.855469 12.835938 C 7.859375 13.003906 7.855469 13.140625 7.816406 13.285156 C 7.738281 13.570312 7.476562 13.714844 7.222656 13.796875 C 6.964844 13.878906 6.589844 13.9375 6.390625 13.957031 C 6.390625 13.359375 6.390625 12.671875 6.390625 12.121094 Z M 7.410156 14.632812 C 7.746094 14.550781 8.078125 14.347656 8.292969 14.121094 C 8.472656 13.929688 8.585938 13.679688 8.660156 13.449219 C 8.734375 13.214844 8.753906 12.996094 8.753906 12.746094 C 8.753906 12.609375 8.738281 12.371094 8.699219 12.1875 C 8.613281 11.753906 8.394531 11.523438 8.0625 11.335938 C 8.089844 11.289062 8.246094 11.132812 8.378906 10.800781 C 8.511719 10.464844 8.503906 10.273438 8.503906 10.113281 C 8.503906 9.683594 8.410156 9.253906 8.082031 9.015625 C 7.839844 8.839844 7.6875 8.738281 7.238281 8.699219 C 6.792969 8.65625 6.125 8.6875 5.460938 8.695312 L 5.460938 14.941406 C 6.132812 14.84375 6.824219 14.78125 7.410156 14.632812 Z M 7.410156 14.632812 "/>
<path style=" stroke:none;fill-rule:nonzero;fill:rgb(0%,61.568627%,100%);fill-opacity:1;" d="M 1.035156 1.273438 L 4.585938 0.160156 L 4.582031 4.527344 L 1.035156 4.914062 Z M 1.035156 1.273438 "/>
<path style=" stroke:none;fill-rule:nonzero;fill:rgb(0%,100%,1.568627%);fill-opacity:1;" d="M 1.035156 4.914062 L 1.035156 7.859375 L 4.582031 8.03125 L 4.582031 4.527344 Z M 1.035156 4.914062 "/>
<path style=" stroke:none;fill-rule:nonzero;fill:rgb(100%,98.039216%,0%);fill-opacity:1;" d="M 1.035156 7.859375 L 1.035156 11.117188 L 4.585938 11.980469 L 4.582031 8.03125 Z M 1.035156 7.859375 "/>
<path style=" stroke:none;fill-rule:nonzero;fill:rgb(100%,0%,20.784314%);fill-opacity:1;" d="M 1.035156 14.378906 L 1.035156 11.117188 L 4.585938 11.980469 L 4.585938 15.847656 Z M 1.035156 14.378906 "/>
</g>
</svg>
