<?xml version="1.0" encoding="UTF-8" standalone="no"?>
<svg
   xmlns:dc="http://purl.org/dc/elements/1.1/"
   xmlns:cc="http://creativecommons.org/ns#"
   xmlns:rdf="http://www.w3.org/1999/02/22-rdf-syntax-ns#"
   xmlns:svg="http://www.w3.org/2000/svg"
   xmlns="http://www.w3.org/2000/svg"
   xmlns:sodipodi="http://sodipodi.sourceforge.net/DTD/sodipodi-0.dtd"
   xmlns:inkscape="http://www.inkscape.org/namespaces/inkscape"
   inkscape:version="0.92.4 (unknown)"
   sodipodi:docname="dosbox-staging-32.svg"
   id="svg5155"
   version="1.1"
   viewBox="0 0 8.4666665 8.4666665"
   height="32"
   width="32">
  <defs
     id="defs5149" />
  <sodipodi:namedview
     inkscape:document-rotation="0"
     showguides="true"
     inkscape:window-maximized="1"
     inkscape:window-y="27"
     inkscape:window-x="0"
     inkscape:window-height="704"
     inkscape:window-width="1366"
     inkscape:pagecheckerboard="true"
     units="px"
     showgrid="true"
     inkscape:current-layer="layer2"
     inkscape:document-units="px"
     inkscape:cy="19.531711"
     inkscape:cx="16.524371"
     inkscape:zoom="1"
     inkscape:pageshadow="2"
     inkscape:pageopacity="0.0"
     borderopacity="1.0"
     bordercolor="#666666"
     pagecolor="#ffffff"
     id="base" />
  <metadata
     id="metadata5152">
    <rdf:RDF>
      <cc:Work
         rdf:about="">
        <dc:format>image/svg+xml</dc:format>
        <dc:type
           rdf:resource="http://purl.org/dc/dcmitype/StillImage" />
        <dc:title></dc:title>
        <cc:license
           rdf:resource="http://creativecommons.org/licenses/by-sa/4.0/" />
      </cc:Work>
      <cc:License
         rdf:about="http://creativecommons.org/licenses/by-sa/4.0/">
        <cc:permits
           rdf:resource="http://creativecommons.org/ns#Reproduction" />
        <cc:permits
           rdf:resource="http://creativecommons.org/ns#Distribution" />
        <cc:requires
           rdf:resource="http://creativecommons.org/ns#Notice" />
        <cc:requires
           rdf:resource="http://creativecommons.org/ns#Attribution" />
        <cc:permits
           rdf:resource="http://creativecommons.org/ns#DerivativeWorks" />
        <cc:requires
           rdf:resource="http://creativecommons.org/ns#ShareAlike" />
      </cc:License>
    </rdf:RDF>
  </metadata>
  <g
     inkscape:label="Background"
     id="layer2"
     inkscape:groupmode="layer"
     sodipodi:insensitive="true">
    <circle
       style="display:inline;opacity:1;vector-effect:none;fill:#241f31;fill-opacity:1;stroke:none;stroke-width:0.070448;stroke-linecap:butt;stroke-linejoin:miter;stroke-miterlimit:4;stroke-dasharray:none;stroke-dashoffset:0;stroke-opacity:1;marker:none;marker-start:none;marker-mid:none;marker-end:none;paint-order:normal;enable-background:new"
       id="circle2892-3"
       cy="4.2333331"
       cx="4.2333331"
       r="4.2333331" />
  </g>
  <g
     inkscape:label="Icon"
     id="layer3"
     inkscape:groupmode="layer"
     sodipodi:insensitive="true">
    <g
       transform="matrix(0.33162499,0,0,0.33162499,-1.5564107,-1.3534691)"
       id="g866">
      <path
         inkscape:connector-curvature="0"
         id="path860"
         style="display:inline;fill:#1f1f1f;fill-opacity:0.1;fill-rule:evenodd;stroke:none;stroke-width:0.15023699;stroke-linejoin:round"
         d="M 8.9058843,8.3128729 V 24.929464 L 21.106189,23.292089 V 9.9115723 Z" />
      <path
         inkscape:connector-curvature="0"
         id="path862"
         style="display:inline;fill:#1f1f1f;fill-opacity:0.1;fill-rule:evenodd;stroke:none;stroke-width:0.15023699;stroke-linejoin:round"
         d="M 8.9058843,24.929464 13.395305,26.80532 26.458333,24.495475 21.106189,23.292089 Z" />
      <path
         inkscape:connector-curvature="0"
         id="path864"
         style="display:inline;fill:#1f1f1f;fill-opacity:0.1;fill-rule:evenodd;stroke:none;stroke-width:0.15023699;stroke-linejoin:round"
         d="M 21.106189,9.9115723 26.458333,9.0628262 V 24.495475 l -5.352144,-1.203386 z" />
      <path
         inkscape:connector-curvature="0"
         id="path866"
         style="display:inline;fill:#1f1f1f;fill-opacity:0.1;fill-rule:evenodd;stroke:none;stroke-width:0.15023699;stroke-linejoin:round"
         d="M 8.9058843,8.3128729 13.395305,6.9020407 26.458333,9.0628262 21.106189,9.9115723 Z" />
      <path
         inkscape:connector-curvature="0"
         id="path870"
         style="display:inline;fill:#f2f2f2;fill-opacity:1;fill-rule:evenodd;stroke:none;stroke-width:0.15023699;stroke-linejoin:round"
         d="M 8.9058843,8.3128729 13.469514,6.9020407 V 26.80532 L 8.9058843,24.929464 Z"
         sodipodi:nodetypes="ccccc" />
      <g
         id="g852">
        <path
           d="M 13.469514,6.9020407 V 26.80532 L 26.458333,24.495475 V 9.0628262 Z"
           style="display:inline;fill:#f2f2f2;fill-opacity:1;fill-rule:evenodd;stroke:none;stroke-width:0.15023699;stroke-linejoin:round"
           id="path868"
           inkscape:connector-curvature="0"
           sodipodi:nodetypes="ccccc" />
        <path
           inkscape:export-ydpi="37.150002"
           inkscape:export-xdpi="37.150002"
           sodipodi:nodetypes="cssscccsssssssccsssssssccssssssssssccsssssssssssscsssscccccccccccccsccssscccsscssccssccccscccscccsccscssscsscccs"
           inkscape:connector-curvature="0"
           id="path850"
           d="m 15.464089,9.4992822 c 0.700146,-0.014022 1.193065,0.062242 1.501567,0.3220168 0.364459,0.306892 0.500652,0.856045 0.49303,1.615485 -0.0077,0.759198 -0.0036,1.576263 0,2.237239 0.0044,0.806672 0.01567,1.418567 -0.923619,1.46037 -0.382694,0.01443 -0.696947,0.007 -1.070978,0.0052 0.01225,-1.86364 0.0024,-3.763667 0,-5.6403108 z m 1.378531,6.7705008 c 0.203503,-0.01889 0.411392,-0.046 0.532217,-0.114273 0.669009,-0.378034 1.144997,-0.807001 1.144997,-2.478877 v -1.870908 c 0,-0.515093 -0.0313,-1.073351 -0.136969,-1.578188 C 18.329885,9.9744424 18.302036,9.9375238 18.104149,9.5437728 17.840546,9.0192658 17.211326,8.4220734 16.43848,8.2993995 15.661986,8.1761464 14.956094,8.015699 14.267359,7.9444878 v 8.3538102 c 0.812083,0.0056 1.722651,0.05063 2.575261,-0.02851 z m 9.253532,-1.200163 c 0.03734,-0.169071 0.08896,-0.817054 -0.03392,-1.19873 -0.136662,-0.424454 -0.284595,-0.759629 -0.577404,-1.066456 -0.311577,-0.326495 -0.713726,-0.605637 -1.053411,-0.854021 -0.293471,-0.214591 -0.599611,-0.473769 -0.580151,-0.861206 0.01791,-0.356639 0.254045,-0.514693 0.582734,-0.537389 0.290229,-0.02004 0.622891,0.177628 0.927558,0.351946 0,0 0.21061,-0.661507 0.32193,-0.9501713 0,0 -0.18937,-0.1342934 -0.293113,-0.1858264 -0.284783,-0.1414597 -0.603261,-0.2826149 -0.898455,-0.3068564 -0.197496,-0.016219 -0.568893,6.469e-4 -0.829191,0.1720602 -0.322163,0.2121562 -0.477219,0.4345089 -0.538697,0.5395819 -0.144691,0.24729 -0.187027,0.570075 -0.198581,0.77561 -0.02142,0.381101 0.100849,0.786454 0.227773,1.039649 0.139291,0.277878 0.284151,0.419974 0.361832,0.499701 0.387198,0.397405 0.983024,0.641312 1.309262,0.994958 0.164347,0.178157 0.415619,0.481205 0.444039,0.720397 0.06983,0.587704 -0.08211,1.229083 -0.712543,1.213313 -0.714031,-0.01786 -0.833728,-0.562619 -0.913531,-0.964683 -0.323977,0.03546 -0.588685,0.05304 -0.868518,0.09361 0.01151,0.190289 0.01792,0.404524 0.06269,0.570402 0.111981,0.41494 0.345226,0.769653 0.68592,0.988115 0.346323,0.222073 0.602237,0.389573 1.009433,0.354847 0.78761,-0.06717 1.430496,-0.782718 1.564344,-1.388851 z M 20.02435,14.194118 v -3.184524 c 0,-0.597099 0.307826,-0.952136 0.836453,-0.895648 0.527857,0.05641 0.852694,0.497582 0.852694,1.094681 v 3.184524 c 0,0.496625 -0.343278,0.903489 -0.852694,0.875744 -0.730881,-0.03981 -0.836453,-0.557292 -0.836453,-1.074777 z m 2.582444,0.264365 v -3.050824 c 0,-1.088643 -0.397226,-2.3480801 -1.745991,-2.5376677 -1.4138,-0.198729 -1.806417,0.9454057 -1.806417,1.9405697 v 3.184524 c 0,1.560417 0.536729,2.361287 1.806417,2.428201 1.096321,0.05778 1.745991,-0.920381 1.745991,-1.964803 z m -0.113979,9.92254 0.395962,-0.0624 c 0,0 1.007135,-2.131138 1.523718,-3.172685 0.12349,0.243904 1.26577,2.682978 1.26577,2.682978 l 0.362751,-0.08385 c 0,0 -1.381541,-2.904016 -1.443282,-3.025964 0.501491,-1.064816 1.481873,-3.201279 1.481873,-3.201279 l -0.339598,-0.03048 c 0,0 -1.29664,2.774437 -1.327514,2.835416 -0.03087,-0.06098 -1.296639,-2.774443 -1.296639,-2.774443 l -0.339595,4e-6 c 0,0 1.389253,3.048837 1.451002,3.170792 -0.57567,1.221613 -1.375014,2.886544 -1.734448,3.661909 z m -3.039509,-1.11101 10e-7,-3.502976 c 0,-0.597099 0.16318,-1.265969 0.601251,-1.631746 0.286641,-0.209797 0.491758,-0.276472 0.822746,-0.265331 0.870695,0.02931 1.258783,0.70288 1.258783,1.698043 v 2.74369 c 0,0.95832 -0.06534,1.070867 -0.360523,1.464592 -0.152561,0.186024 -0.364314,0.333399 -0.538258,0.417798 -0.174422,0.0839 -0.255028,0.101242 -0.43603,0.11979 -0.181005,0.01855 -0.589936,-0.0028 -0.829949,-0.189627 -0.413726,-0.322031 -0.518021,-0.72944 -0.518021,-0.854233 z m 2.198236,1.129204 c 0.627762,-0.484709 0.849984,-1.246704 0.849984,-1.925335 V 19.48839 c 0,-0.797141 -0.106486,-1.289472 -0.735511,-1.775343 -0.273807,-0.196709 -0.544836,-0.270633 -0.88835,-0.26537 -0.690593,0.01058 -1.055875,0.331322 -1.352539,0.679028 -0.38856,0.469591 -0.47074,1.061501 -0.47074,1.640332 v 3.542782 c 0,0.597099 0.423122,1.315699 1.222297,1.427425 0.505912,0.04524 0.988373,-0.04669 1.374859,-0.338027 z m -6.187431,-3.497199 v -2.060674 c 1.240645,-0.134898 1.994597,-0.111841 1.994597,0.965499 0,0.999534 -1.150182,1.08593 -1.994597,1.095175 z m 0,1.173798 c 1.677927,-0.245337 1.969616,-0.01111 1.994597,0.910853 0.01396,0.86867 -0.385642,1.004162 -0.872831,1.243596 -0.308882,0.151803 -0.864051,0.172354 -1.121766,0.195952 z m 1.328438,3.191613 c 0.435052,-0.105561 0.863234,-0.362769 1.139548,-0.652799 0.231392,-0.242879 0.3804,-0.56062 0.475796,-0.849751 0.09832,-0.297985 0.111954,-0.574479 0.111954,-0.892931 0,-0.172355 -0.0095,-0.474403 -0.05873,-0.710604 -0.114316,-0.548279 -0.190142,-0.646374 -0.603489,-1.080691 0.609376,-0.509821 0.662206,-0.824437 0.662206,-1.552456 0,-1.24768 -1.098673,-1.738653 -1.950119,-1.792473 -0.581193,-0.03674 -1.441161,-0.01292 -2.302352,-0.0043 v 7.926969 c 0.86861,-0.125409 1.76591,-0.206744 2.525183,-0.390976 z"
           style="display:inline;opacity:1;fill:#000000;fill-opacity:1;stroke:none;stroke-width:0.15175401" />
        <path
           sodipodi:nodetypes="ccccc"
           inkscape:connector-curvature="0"
           id="path833"
           d="M 8.7785464,8.3511847 13.469514,6.9020407 V 12.442629 L 8.9058979,12.933992 Z"
           style="fill:#009dff;fill-opacity:1;stroke:none;stroke-width:0.0397502px;stroke-linecap:butt;stroke-linejoin:miter;stroke-opacity:1" />
        <path
           sodipodi:nodetypes="ccccc"
           inkscape:connector-curvature="0"
           id="path835"
           d="m 8.9058779,12.933992 -3e-6,3.737034 4.5636391,0.218143 V 12.44263 Z"
           style="fill:#00ff04;fill-opacity:1;stroke:none;stroke-width:0.0397502px;stroke-linecap:butt;stroke-linejoin:miter;stroke-opacity:1" />
        <path
           sodipodi:nodetypes="ccccc"
           inkscape:connector-curvature="0"
           id="path837"
           d="m 8.9058749,16.671026 v 4.13098 l 4.5636391,1.109822 v -5.022659 z"
           style="fill:#fffa00;fill-opacity:1;stroke:none;stroke-width:0.0397502px;stroke-linecap:butt;stroke-linejoin:miter;stroke-opacity:1" />
        <path
           sodipodi:nodetypes="ccccc"
           inkscape:connector-curvature="0"
           id="path839"
           d="m 8.9058749,24.941889 v -4.139883 l 4.5636391,1.109822 -4e-6,4.893492 z"
           style="fill:#ff0035;fill-opacity:1;stroke:none;stroke-width:0.0397502px;stroke-linecap:butt;stroke-linejoin:miter;stroke-opacity:1" />
      </g>
    </g>
  </g>
</svg>
