<?xml version="1.0" encoding="UTF-8" standalone="no"?>
<svg
   xmlns:dc="http://purl.org/dc/elements/1.1/"
   xmlns:cc="http://creativecommons.org/ns#"
   xmlns:rdf="http://www.w3.org/1999/02/22-rdf-syntax-ns#"
   xmlns:svg="http://www.w3.org/2000/svg"
   xmlns="http://www.w3.org/2000/svg"
   xmlns:sodipodi="http://sodipodi.sourceforge.net/DTD/sodipodi-0.dtd"
   xmlns:inkscape="http://www.inkscape.org/namespaces/inkscape"
   width="24"
   height="24"
   viewBox="0 0 6.3499999 6.3499999"
   version="1.1"
   id="svg5155"
   sodipodi:docname="dosbox-staging-24.svg"
   inkscape:version="0.92.4 (unknown)">
  <defs
     id="defs5149" />
  <sodipodi:namedview
     id="base"
     pagecolor="#ffffff"
     bordercolor="#666666"
     borderopacity="1.0"
     inkscape:pageopacity="0.0"
     inkscape:pageshadow="2"
     inkscape:zoom="16"
     inkscape:cx="13.230027"
     inkscape:cy="10.948589"
     inkscape:document-units="px"
     inkscape:current-layer="layer2"
     showgrid="true"
     units="px"
     inkscape:pagecheckerboard="true"
     inkscape:window-width="1366"
     inkscape:window-height="704"
     inkscape:window-x="0"
     inkscape:window-y="27"
     inkscape:window-maximized="1"
     showguides="true"
     inkscape:document-rotation="0" />
  <metadata
     id="metadata5152">
    <rdf:RDF>
      <cc:Work
         rdf:about="">
        <dc:format>image/svg+xml</dc:format>
        <dc:type
           rdf:resource="http://purl.org/dc/dcmitype/StillImage" />
        <dc:title />
        <cc:license
           rdf:resource="http://creativecommons.org/licenses/by-sa/4.0/" />
      </cc:Work>
      <cc:License
         rdf:about="http://creativecommons.org/licenses/by-sa/4.0/">
        <cc:permits
           rdf:resource="http://creativecommons.org/ns#Reproduction" />
        <cc:permits
           rdf:resource="http://creativecommons.org/ns#Distribution" />
        <cc:requires
           rdf:resource="http://creativecommons.org/ns#Notice" />
        <cc:requires
           rdf:resource="http://creativecommons.org/ns#Attribution" />
        <cc:permits
           rdf:resource="http://creativecommons.org/ns#DerivativeWorks" />
        <cc:requires
           rdf:resource="http://creativecommons.org/ns#ShareAlike" />
      </cc:License>
    </rdf:RDF>
  </metadata>
  <g
     inkscape:groupmode="layer"
     id="layer2"
     inkscape:label="Background"
     sodipodi:insensitive="true">
    <circle
       r="3.175"
       cx="3.175"
       cy="3.175"
       id="circle2892-3"
       style="display:inline;opacity:1;vector-effect:none;fill:#241f31;fill-opacity:1;stroke:none;stroke-width:0.0528358;stroke-linecap:butt;stroke-linejoin:miter;stroke-miterlimit:4;stroke-dasharray:none;stroke-dashoffset:0;stroke-opacity:1;marker:none;marker-start:none;marker-mid:none;marker-end:none;paint-order:normal;enable-background:new" />
  </g>
  <g
     inkscape:groupmode="layer"
     id="layer3"
     inkscape:label="Icon"
     sodipodi:insensitive="true">
    <g
       id="g866"
       transform="matrix(0.22610795,0,0,0.22610795,-0.69077245,-0.66020405)">
      <path
         d="M 8.9058843,8.3128729 V 24.929464 L 21.106189,23.292089 V 9.9115723 Z"
         style="display:inline;fill:#1f1f1f;fill-opacity:0.1;fill-rule:evenodd;stroke:none;stroke-width:0.15023699;stroke-linejoin:round"
         id="path860"
         inkscape:connector-curvature="0" />
      <path
         d="M 8.9058843,24.929464 13.395305,26.80532 26.458333,24.495475 21.106189,23.292089 Z"
         style="display:inline;fill:#1f1f1f;fill-opacity:0.1;fill-rule:evenodd;stroke:none;stroke-width:0.15023699;stroke-linejoin:round"
         id="path862"
         inkscape:connector-curvature="0" />
      <path
         d="M 21.106189,9.9115723 26.458333,9.0628262 V 24.495475 l -5.352144,-1.203386 z"
         style="display:inline;fill:#1f1f1f;fill-opacity:0.1;fill-rule:evenodd;stroke:none;stroke-width:0.15023699;stroke-linejoin:round"
         id="path864"
         inkscape:connector-curvature="0" />
      <path
         d="M 8.9058843,8.3128729 13.395305,6.9020407 26.458333,9.0628262 21.106189,9.9115723 Z"
         style="display:inline;fill:#1f1f1f;fill-opacity:0.1;fill-rule:evenodd;stroke:none;stroke-width:0.15023699;stroke-linejoin:round"
         id="path866"
         inkscape:connector-curvature="0" />
      <path
         sodipodi:nodetypes="ccccc"
         d="M 8.9058843,8.3128729 13.58653,6.9020407 V 26.80532 L 8.9058843,24.929464 Z"
         style="display:inline;fill:#f2f2f2;fill-opacity:1;fill-rule:evenodd;stroke:none;stroke-width:0.15023699;stroke-linejoin:round"
         id="path870"
         inkscape:connector-curvature="0" />
      <path
         d="M 13.58653,6.4303536 V 27.493301 L 27.628495,25.048873 V 8.7170377 Z"
         style="display:inline;fill:#f2f2f2;fill-opacity:1;fill-rule:evenodd;stroke:none;stroke-width:0.154552;stroke-linejoin:round"
         id="path868"
         inkscape:connector-curvature="0"
         sodipodi:nodetypes="ccccc" />
      <path
         inkscape:export-ydpi="37.150002"
         inkscape:export-xdpi="37.150002"
         sodipodi:nodetypes="ccsssccccscsccccssssccssssssssssccsssccscsssssccssscccsccccccccssccscccsscsssscssccccscccsccscssscscscssccscsc"
         inkscape:connector-curvature="0"
         id="path850"
         d="m 15.926858,15.205371 -10e-7,-5.9615174 c 0.703344,-0.014821 0.985089,-0.087807 1.285782,0.1968268 0.324136,0.306825 0.278192,1.0483226 0.270536,1.8510116 -0.0077,0.802431 -0.0036,1.666027 0,2.364644 0.0044,0.85261 -0.05218,1.531121 -0.642556,1.564431 -0.284639,0.01346 -0.841995,-0.01413 -0.913761,-0.0154 z m 1.857698,1.044945 c 0.869354,-0.374785 0.863766,-1.725874 0.868783,-2.591221 v -1.977452 c 0,-1.510383 0.02705,-1.8317813 -0.15604,-2.471723 C 18.232494,8.6555436 17.71411,8.1053002 16.937736,7.9756404 16.157696,7.8453683 15.44858,7.6757838 14.7567,7.6005173 v 8.8295397 c 0.862388,0.0044 2.176955,0.11653 3.027856,-0.179741 z m 9.172394,-1.118907 c 0.0925,-0.50871 0.08937,-0.863583 -0.03408,-1.266995 -0.137286,-0.448626 -0.285895,-0.802889 -0.580041,-1.127188 -0.313,-0.345088 -0.716985,-0.640127 -1.058222,-0.902656 -0.29481,-0.226811 -0.602348,-0.500749 -0.582799,-0.910249 0.018,-0.376949 0.255204,-0.544004 0.585394,-0.567992 0.291555,-0.02118 0.625736,0.187743 0.931794,0.371988 0,0 0.211572,-0.699178 0.3234,-1.004281 0,0 -0.190234,-0.1419412 -0.294452,-0.1964088 C 25.961862,9.3781117 25.641929,9.228918 25.345387,9.203296 25.14699,9.186153 24.773895,9.2039798 24.512409,9.3851546 c -0.323633,0.2242381 -0.479398,0.4592532 -0.541157,0.5703099 -0.145351,0.2613725 -0.187881,0.6025385 -0.199487,0.8197785 -0.02152,0.402804 0.101309,0.831241 0.228813,1.098855 0.139927,0.293703 0.285449,0.44389 0.363484,0.528157 0.388967,0.420037 0.987514,0.677834 1.315241,1.051619 0.165098,0.188303 0.417517,0.508608 0.446067,0.761422 0.07015,0.621173 -0.08249,1.299077 -0.715798,1.282409 -0.71729,-0.01888 -0.837534,-0.594659 -0.917702,-1.01962 -0.325457,0.03748 -0.591373,0.05606 -0.872484,0.09894 0.01156,0.201126 0.01801,0.42756 0.06298,0.602885 0.112492,0.43857 0.346802,0.813483 0.689052,1.044386 0.347905,0.234719 0.603504,0.373866 1.014043,0.375054 1.004966,-0.119953 1.417239,-1.025591 1.571489,-1.467941 z m -6.349437,-0.92536 v -3.365875 c 0,-0.631103 0.02215,-1.1345586 0.553193,-1.0748537 0.530268,0.059623 0.61697,0.6541187 0.61697,1.2852207 v 3.365875 c 0,0.524907 -0.105486,0.823696 -0.61697,0.790166 -0.583368,-0.03824 -0.553193,-0.453578 -0.553193,-1.000533 z m 2.340327,0.27942 v -3.224561 c 0,-1.150639 -0.432211,-2.4653673 -1.787134,-2.6657515 -1.420256,-0.2100462 -1.723357,0.9828138 -1.723357,2.0346505 v 3.365875 c 0,1.649279 0.447871,2.310339 1.723357,2.381064 1.101327,0.06107 1.787134,-0.787378 1.787134,-1.891277 z m 0.351431,10.421645 c 0,0 1.011732,-2.252502 1.530674,-3.353363 0.124055,0.257795 1.271551,2.835768 1.271551,2.835768 l 0.356836,-0.08863 c 0,0 -1.380278,-3.069393 -1.4423,-3.198285 0.50378,-1.125455 1.4423,-3.415275 1.4423,-3.415275 l -0.29481,-5.3e-4 c 0,0 -1.302561,2.932434 -1.333577,2.996886 -0.03101,-0.06445 -1.302559,-2.932442 -1.302559,-2.932442 l -0.341146,4e-6 c 0,0 1.395597,3.222462 1.457628,3.351362 -0.578298,1.291181 -1.092542,2.612715 -1.696028,3.891587 0.351431,-0.08711 0.296127,-0.07668 0.351431,-0.08708 z M 19.82701,20.096332 c 0.003,-0.631095 0.07981,-1.275398 0.519875,-1.662005 0.287949,-0.221745 0.593063,-0.354881 0.925562,-0.343105 0.874672,0.03098 1.277535,0.742906 1.277535,1.794742 V 22.7859 c -1e-6,1.012895 -0.07863,1.131851 -0.375169,1.547998 -0.153258,0.196617 -0.365979,0.352385 -0.540716,0.44159 -0.175219,0.08868 -0.256193,0.107008 -0.438021,0.126612 -0.181831,0.01961 -0.309727,0.03859 -0.602024,-0.05502 -0.495965,-0.158845 -0.767039,-0.480077 -0.767039,-1.048278 0,-1.170588 -0.0059,-2.467323 -3e-6,-3.70247 z m 2.223215,4.895972 c 0.630629,-0.512312 0.897615,-1.317701 0.897615,-2.034978 l 1e-6,-3.155509 c 0,-0.842537 -0.150722,-1.362904 -0.782618,-1.876445 -0.275058,-0.207911 -0.547325,-0.267008 -0.892408,-0.261446 -0.693746,0.01119 -1.06938,0.226954 -1.367398,0.594461 -0.390335,0.496333 -0.468465,1.226152 -0.468465,1.837945 v 3.744535 c 0,0.631102 0.429313,1.390626 1.232137,1.508714 0.508222,0.04782 0.992887,-0.04935 1.381137,-0.357277 z m -6.123368,-3.696356 -10e-7,-2.062371 c 0.800526,-0.06361 1.556318,-0.05761 1.556318,0.904829 0,0.967689 -0.918647,1.127108 -1.556317,1.157542 z m 0.03938,1.240643 1.051899,-0.144146 c 0.464726,0.05394 0.658135,0.557127 0.663967,1.108694 0.0079,0.749059 -0.140709,0.99169 -0.636662,1.285813 -0.298771,0.177184 -0.859692,0.1899 -1.118584,0.214842 -3e-6,-0.801989 3e-6,-1.722329 3e-6,-2.465201 z m 1.327172,3.373368 c 1.324089,-0.411008 1.558858,-1.369703 1.558858,-2.517303 0,-1.760544 -0.630358,-1.820368 -0.819999,-1.867119 0.549976,-0.492775 0.622469,-0.993239 0.62107,-1.681646 -0.0028,-1.37885 -0.752648,-1.737612 -1.583776,-1.89455 -0.5751,-0.108594 -1.447741,-0.01365 -2.312865,-0.0046 v 8.378391 c 0.872577,-0.13255 1.773974,-0.218517 2.536715,-0.413241 z"
         style="display:inline;fill:#000000;fill-opacity:1;stroke:none;stroke-width:0.156371" />
      <path
         sodipodi:nodetypes="ccccc"
         inkscape:connector-curvature="0"
         id="path833"
         d="M 7.7357111,7.9233882 13.58653,6.4303536 v 5.8845174 l -5.8508189,0.498887 z"
         style="fill:#009dff;fill-opacity:1;stroke:none;stroke-width:0.0408918px;stroke-linecap:butt;stroke-linejoin:miter;stroke-opacity:1" />
      <path
         sodipodi:nodetypes="ccccc"
         inkscape:connector-curvature="0"
         id="path835"
         d="m 7.7357111,12.813758 v 3.954773 l 5.8442959,0.240017 0.0065,-4.693677 z"
         style="fill:#00ff04;fill-opacity:1;stroke:none;stroke-width:0.0408918px;stroke-linecap:butt;stroke-linejoin:miter;stroke-opacity:1" />
      <path
         sodipodi:nodetypes="ccccc"
         inkscape:connector-curvature="0"
         id="path837"
         d="m 7.7357111,16.768531 v 4.371672 l 5.8508189,1.160456 v -5.292111 z"
         style="fill:#fffa00;fill-opacity:1;stroke:none;stroke-width:0.0408918px;stroke-linecap:butt;stroke-linejoin:miter;stroke-opacity:1" />
      <path
         sodipodi:nodetypes="ccccc"
         inkscape:connector-curvature="0"
         id="path839"
         d="m 7.7357111,25.521297 v -4.381094 l 5.8508189,1.160456 v 5.192642 z"
         style="fill:#ff0035;fill-opacity:1;stroke:none;stroke-width:0.0408918px;stroke-linecap:butt;stroke-linejoin:miter;stroke-opacity:1" />
    </g>
  </g>
</svg>
