<?xml version="1.0" encoding="UTF-8" standalone="no"?>
<!-- Created with Inkscape (http://www.inkscape.org/) -->

<svg
   width="210mm"
   height="297mm"
   viewBox="0 0 210 297"
   version="1.1"
   id="svg5"
   inkscape:version="1.2.2 (b0a84865, 2022-12-01)"
   sodipodi:docname="tree3.svg"
   xml:space="preserve"
   inkscape:export-filename="../tree3.png"
   inkscape:export-xdpi="1000"
   inkscape:export-ydpi="1000"
   xmlns:inkscape="http://www.inkscape.org/namespaces/inkscape"
   xmlns:sodipodi="http://sodipodi.sourceforge.net/DTD/sodipodi-0.dtd"
   xmlns="http://www.w3.org/2000/svg"
   xmlns:svg="http://www.w3.org/2000/svg"><sodipodi:namedview
     id="namedview7"
     pagecolor="#ffffff"
     bordercolor="#000000"
     borderopacity="0.25"
     inkscape:showpageshadow="2"
     inkscape:pageopacity="0.0"
     inkscape:pagecheckerboard="0"
     inkscape:deskcolor="#d1d1d1"
     inkscape:document-units="mm"
     showgrid="false"
     inkscape:zoom="3.3638608"
     inkscape:cx="139.27449"
     inkscape:cy="111.92496"
     inkscape:window-width="1728"
     inkscape:window-height="1051"
     inkscape:window-x="0"
     inkscape:window-y="38"
     inkscape:window-maximized="1"
     inkscape:current-layer="layer1"><inkscape:grid
       type="xygrid"
       id="grid132" /></sodipodi:namedview><defs
     id="defs2" /><g
     inkscape:label="Layer 1"
     inkscape:groupmode="layer"
     id="layer1"><text
       xml:space="preserve"
       style="font-size:2.46944px;line-height:1.6;font-family:'Open Sans';-inkscape-font-specification:'Open Sans';text-align:start;text-anchor:start;opacity:0.992509;fill:#333333;fill-opacity:1;stroke:#efefef;stroke-width:0.165"
       x="11.719354"
       y="5.002913"
       id="text188"><tspan
         sodipodi:role="line"
         style="font-style:normal;font-variant:normal;font-weight:normal;font-stretch:normal;font-size:2.46944px;font-family:'Roboto Mono';-inkscape-font-specification:'Roboto Mono';text-align:start;text-anchor:start;fill:#333333;fill-opacity:1;stroke:none;stroke-width:0.165"
         x="11.719354"
         y="5.002913"
         id="tspan2452">DOS Games</tspan></text><path
       d="M 7.9432645,3.96772 7.4856405,4.751924 V 3.30837 c 0,-0.18212 0.1480699,-0.3301905 0.3301908,-0.3301905 h 0.6062099 c 0.08771,0 0.171803,0.034567 0.233713,0.096477 l 0.13672,0.13672 c 0.06191,0.06191 0.146006,0.09648 0.233713,0.09648 h 0.605694 c 0.182121,0 0.330191,0.148071 0.330191,0.330192 v 0.165095 h -1.733502 c -0.117631,0 -0.2259745,0.06243 -0.2853057,0.164063 z m 0.1423947,0.08306 c 0.02992,-0.05108 0.08409,-0.08203 0.142911,-0.08203 h 2.0636928 c 0.05933,0 0.113503,0.03147 0.142911,0.08306 0.02941,0.05159 0.02941,0.114535 -5.2e-4,0.165611 L 9.8568212,5.207994 c -0.02941,0.05056 -0.08358,0.08152 -0.142394,0.08152 H 7.6507427 c -0.059331,0 -0.113503,-0.03147 -0.1429107,-0.08306 C 7.478424,5.154864 7.478424,5.091919 7.5083428,5.040843 L 8.0861772,4.05027 Z"
       id="path5368"
       style="stroke-width:0.00515923;fill:#e6823f;fill-opacity:1" /><text
       xml:space="preserve"
       style="font-size:2.46944px;line-height:1.6;font-family:'Open Sans';-inkscape-font-specification:'Open Sans';text-align:start;text-anchor:start;opacity:0.992509;fill:#333333;fill-opacity:1;stroke:#efefef;stroke-width:0.165"
       x="18.274078"
       y="8.9699945"
       id="text188-2"><tspan
         sodipodi:role="line"
         style="font-style:normal;font-variant:normal;font-weight:normal;font-stretch:normal;font-size:2.46944px;font-family:'Roboto Mono';-inkscape-font-specification:'Roboto Mono';text-align:start;text-anchor:start;fill:#333333;fill-opacity:1;stroke:none;stroke-width:0.165"
         x="18.274078"
         y="8.9699945"
         id="tspan2452-4">Prince of Persia</tspan></text><text
       xml:space="preserve"
       style="font-size:2.46944px;line-height:1.6;font-family:'Open Sans';-inkscape-font-specification:'Open Sans';text-align:start;text-anchor:start;opacity:0.992509;fill:#333333;fill-opacity:1;stroke:#efefef;stroke-width:0.165"
       x="35.471996"
       y="20.876245"
       id="text188-2-5"><tspan
         sodipodi:role="line"
         style="font-style:normal;font-variant:normal;font-weight:normal;font-stretch:normal;font-size:2.46944px;font-family:'Roboto Mono';-inkscape-font-specification:'Roboto Mono';text-align:start;text-anchor:start;fill:#333333;fill-opacity:1;stroke:none;stroke-width:0.165"
         x="35.471996"
         y="20.876245"
         id="tspan2452-4-3">CDUNGEON.DAT</tspan></text><text
       xml:space="preserve"
       style="font-size:2.46944px;line-height:1.6;font-family:'Open Sans';-inkscape-font-specification:'Open Sans';text-align:start;text-anchor:start;opacity:0.992509;fill:#333333;fill-opacity:1;stroke:#efefef;stroke-width:0.165"
       x="35.471996"
       y="24.844995"
       id="text188-2-5-9"><tspan
         sodipodi:role="line"
         style="font-style:normal;font-variant:normal;font-weight:normal;font-stretch:normal;font-size:2.46944px;font-family:'Roboto Mono';-inkscape-font-specification:'Roboto Mono';text-align:start;text-anchor:start;fill:#333333;fill-opacity:1;stroke:none;stroke-width:0.165"
         x="35.471996"
         y="24.844995"
         id="tspan2452-4-3-6">DIGISND1.DAT</tspan></text><text
       xml:space="preserve"
       style="font-size:2.46944px;line-height:1.6;font-family:'Open Sans';-inkscape-font-specification:'Open Sans';text-align:start;text-anchor:start;opacity:0.992509;fill:#333333;fill-opacity:1;stroke:#efefef;stroke-width:0.165"
       x="35.471153"
       y="28.777719"
       id="text188-2-5-9-1"><tspan
         sodipodi:role="line"
         style="font-style:normal;font-variant:normal;font-weight:normal;font-stretch:normal;font-size:2.46944px;font-family:'Roboto Mono';-inkscape-font-specification:'Roboto Mono';text-align:start;text-anchor:start;fill:#333333;fill-opacity:1;stroke:none;stroke-width:0.165"
         x="35.471153"
         y="28.777719"
         id="tspan2452-4-3-6-5">DIGISND2.DAT</tspan></text><text
       xml:space="preserve"
       style="font-size:2.46944px;line-height:1.6;font-family:'Open Sans';-inkscape-font-specification:'Open Sans';text-align:start;text-anchor:start;opacity:0.992509;fill:#333333;fill-opacity:1;stroke:#efefef;stroke-width:0.165"
       x="20.919912"
       y="40.579998"
       id="text188-2-5-9-0"><tspan
         sodipodi:role="line"
         style="font-style:normal;font-variant:normal;font-weight:normal;font-stretch:normal;font-size:2.46944px;font-family:'Roboto Mono';-inkscape-font-specification:'Roboto Mono';text-align:start;text-anchor:start;fill:#333333;fill-opacity:1;stroke:none;stroke-width:0.165"
         x="20.919912"
         y="40.579998"
         id="tspan2452-4-3-6-4">dosbox.conf</tspan></text><path
       d="M 14.557848,7.93647 14.100224,8.720674 V 7.27712 c 0,-0.18212 0.148069,-0.3301905 0.33019,-0.3301905 h 0.60621 c 0.08771,0 0.171803,0.034567 0.233713,0.096477 l 0.13672,0.13672 c 0.06191,0.06191 0.146006,0.09648 0.233713,0.09648 h 0.605694 c 0.182121,0 0.330191,0.148071 0.330191,0.330192 v 0.165095 h -1.733502 c -0.117631,0 -0.225974,0.06243 -0.285305,0.164063 z m 0.142394,0.08306 c 0.02992,-0.05108 0.08409,-0.08203 0.142911,-0.08203 h 2.063693 c 0.05933,0 0.113503,0.03147 0.142911,0.08306 0.02941,0.05159 0.02941,0.114535 -5.2e-4,0.165611 l -0.577833,0.990573 c -0.02941,0.05056 -0.08358,0.08152 -0.142394,0.08152 h -2.063684 c -0.05933,0 -0.113503,-0.03147 -0.142911,-0.08306 -0.02941,-0.05159 -0.02941,-0.114535 5.11e-4,-0.165611 L 14.70076,8.01902 Z"
       id="path5368-7"
       style="stroke-width:0.00515923;fill:#e6823f;fill-opacity:1" /><text
       xml:space="preserve"
       style="font-size:2.46944px;line-height:1.6;font-family:'Open Sans';-inkscape-font-specification:'Open Sans';text-align:start;text-anchor:start;opacity:0.992509;fill:#333333;fill-opacity:1;stroke:#efefef;stroke-width:0.165"
       x="24.955841"
       y="12.938745"
       id="text188-2-4"><tspan
         sodipodi:role="line"
         style="font-style:normal;font-variant:normal;font-weight:normal;font-stretch:normal;font-size:2.46944px;font-family:'Roboto Mono';-inkscape-font-specification:'Roboto Mono';text-align:start;text-anchor:start;fill:#333333;fill-opacity:1;stroke:none;stroke-width:0.165"
         x="24.955841"
         y="12.938745"
         id="tspan2452-4-1">drives</tspan></text><path
       d="m 21.172432,11.90522 -0.457624,0.784204 V 11.24587 c 0,-0.18212 0.148069,-0.330191 0.33019,-0.330191 h 0.60621 c 0.08771,0 0.171803,0.03457 0.233713,0.09648 l 0.13672,0.13672 c 0.06191,0.06191 0.146006,0.09648 0.233713,0.09648 h 0.605694 c 0.182121,0 0.330191,0.148071 0.330191,0.330192 v 0.165095 h -1.733502 c -0.117631,0 -0.225974,0.06243 -0.285305,0.164063 z m 0.142394,0.08306 c 0.02992,-0.05108 0.08409,-0.08203 0.142911,-0.08203 h 2.063693 c 0.05933,0 0.113503,0.03147 0.142911,0.08306 0.02941,0.05159 0.02941,0.114535 -5.2e-4,0.165611 l -0.577833,0.990573 c -0.02941,0.05056 -0.08358,0.08152 -0.142394,0.08152 H 20.87991 c -0.05933,0 -0.113503,-0.03147 -0.142911,-0.08306 -0.02941,-0.05159 -0.02941,-0.114535 5.11e-4,-0.165611 l 0.577834,-0.990573 z"
       id="path5368-7-8"
       style="fill:#e6823f;fill-opacity:1;stroke-width:0.00515923" /><text
       xml:space="preserve"
       style="font-size:2.46944px;line-height:1.6;font-family:'Open Sans';-inkscape-font-specification:'Open Sans';text-align:start;text-anchor:start;opacity:0.992509;fill:none;stroke:#efefef;stroke-width:0.165"
       x="31.629854"
       y="16.907495"
       id="text188-2-4-5"><tspan
         sodipodi:role="line"
         style="font-style:normal;font-variant:normal;font-weight:normal;font-stretch:normal;font-size:2.46944px;font-family:'Roboto Mono';-inkscape-font-specification:'Roboto Mono';text-align:start;text-anchor:start;fill:#333333;fill-opacity:1;stroke:none;stroke-width:0.165"
         x="31.629854"
         y="16.907495"
         id="tspan2452-4-1-8">c</tspan></text><path
       d="m 27.787015,15.87397 -0.457624,0.784204 v -1.443555 c 0,-0.18212 0.148069,-0.33019 0.33019,-0.33019 h 0.60621 c 0.08771,0 0.171803,0.03457 0.233713,0.09648 l 0.13672,0.13672 c 0.06191,0.06191 0.146006,0.09648 0.233713,0.09648 h 0.605694 c 0.182121,0 0.330191,0.148071 0.330191,0.330192 v 0.165095 H 28.07232 c -0.117631,0 -0.225974,0.06243 -0.285305,0.164063 z m 0.142394,0.08306 c 0.02992,-0.05108 0.08409,-0.08203 0.142911,-0.08203 h 2.063693 c 0.05933,0 0.113503,0.03147 0.142911,0.08306 0.02941,0.05159 0.02941,0.114535 -5.2e-4,0.165611 l -0.577833,0.990573 c -0.02941,0.05056 -0.08358,0.08152 -0.142394,0.08152 h -2.063684 c -0.05933,0 -0.113503,-0.03147 -0.142911,-0.08306 -0.02941,-0.05159 -0.02941,-0.114535 5.11e-4,-0.165611 l 0.577834,-0.990573 z"
       id="path5368-7-8-9"
       style="stroke-width:0.00515923;fill:#e6823f;fill-opacity:1" /><path
       style="opacity:0.992509;fill:none;fill-opacity:1;stroke:#b6b6b6;stroke-width:0.265;stroke-dasharray:none;stroke-opacity:1"
       d="m 8.7312501,6.0854168 -1e-7,1.8520832 4.497917,-1e-7"
       id="path29354"
       sodipodi:nodetypes="ccc" /><path
       style="opacity:0.992509;fill:none;fill-opacity:1;stroke:#b6b6b6;stroke-width:0.265;stroke-dasharray:none;stroke-opacity:1"
       d="m 15.345833,10.054167 v 1.852083 l 4.497917,0 v 0 0"
       id="path31192"
       sodipodi:nodetypes="ccccc" /><path
       style="opacity:0.992509;fill:none;fill-opacity:1;stroke:#b6b6b6;stroke-width:0.265;stroke-dasharray:none;stroke-opacity:1"
       d="m 15.345833,11.90625 0,27.849204 h 4.497917"
       id="path31194"
       sodipodi:nodetypes="ccc" /><path
       style="opacity:0.992509;fill:none;fill-opacity:1;stroke:#b6b6b6;stroke-width:0.265;stroke-dasharray:none;stroke-opacity:1"
       d="M 21.960417,14.022917 V 15.875 l 4.497916,0"
       id="path31196"
       sodipodi:nodetypes="ccc" /><path
       style="opacity:0.992509;fill:none;fill-opacity:1;stroke:#b6b6b6;stroke-width:0.265;stroke-dasharray:none;stroke-opacity:1"
       d="m 28.575001,17.991667 -1e-6,1.852083 5.820833,0"
       id="path31198"
       sodipodi:nodetypes="ccc" /><path
       style="opacity:0.992509;fill:none;fill-opacity:1;stroke:#b6b6b6;stroke-width:0.265;stroke-dasharray:none;stroke-opacity:1;font-variation-settings:normal;vector-effect:none;stroke-linecap:butt;stroke-linejoin:miter;stroke-miterlimit:4;stroke-dashoffset:0;-inkscape-stroke:none;stop-color:#000000;stop-opacity:1"
       d="m 28.575,19.84375 v 3.96875 l 5.820833,0"
       id="path31200"
       sodipodi:nodetypes="ccc" /><path
       style="opacity:0.992509;fill:none;fill-opacity:1;stroke:#b6b6b6;stroke-width:0.265;stroke-dasharray:none;stroke-opacity:1"
       d="m 28.575,23.815818 v 3.96875 h 5.820833"
       id="path31200-1"
       sodipodi:nodetypes="ccc" /><path
       style="opacity:0.992509;fill:none;fill-opacity:1;stroke:#b6b6b6;stroke-width:0.265;stroke-dasharray:none;stroke-opacity:1"
       d="m 28.575,27.768222 v 3.96875 h 5.820833"
       id="path31200-1-5"
       sodipodi:nodetypes="ccc" /><path
       style="opacity:0.992509;fill:none;fill-opacity:1;stroke:#b6b6b6;stroke-width:0.265;stroke-dasharray:none;stroke-opacity:1"
       d="m 28.575,31.74029 v 3.96875 h 5.820833"
       id="path31200-1-5-0"
       sodipodi:nodetypes="ccc" /><text
       xml:space="preserve"
       style="font-size:2.46944px;line-height:1.6;font-family:'Open Sans';-inkscape-font-specification:'Open Sans';text-align:start;text-anchor:start;opacity:0.992509;fill:#333333;fill-opacity:1;stroke:#efefef;stroke-width:0.165"
       x="35.471153"
       y="32.710445"
       id="text188-2-5-9-1-2"><tspan
         sodipodi:role="line"
         style="font-style:normal;font-variant:normal;font-weight:normal;font-stretch:normal;font-size:2.46944px;font-family:'Roboto Mono';-inkscape-font-specification:'Roboto Mono';text-align:start;text-anchor:start;fill:#333333;fill-opacity:1;stroke:none;stroke-width:0.165"
         x="35.471153"
         y="32.710445"
         id="tspan2452-4-3-6-5-4">DIGISND3.DAT</tspan></text><text
       xml:space="preserve"
       style="font-size:2.46944px;line-height:1.6;font-family:'Open Sans';-inkscape-font-specification:'Open Sans';text-align:start;text-anchor:start;opacity:0.992509;fill:#333333;fill-opacity:1;stroke:#efefef;stroke-width:0.165"
       x="35.471153"
       y="36.643169"
       id="text188-2-5-9-1-2-2"><tspan
         sodipodi:role="line"
         style="font-style:normal;font-variant:normal;font-weight:normal;font-stretch:normal;font-size:2.46944px;font-family:'Roboto Mono';-inkscape-font-specification:'Roboto Mono';text-align:start;text-anchor:start;fill:#333333;fill-opacity:1;stroke:none;stroke-width:0.165"
         x="35.471153"
         y="36.643169"
         id="tspan2452-4-3-6-5-4-6">...</tspan></text></g></svg>
