<?xml version="1.0" encoding="UTF-8"?>
<svg xmlns="http://www.w3.org/2000/svg" xmlns:xlink="http://www.w3.org/1999/xlink" width="500px" height="500px" viewBox="0 0 500 500" version="1.1">
<g id="surface1">
<path style=" stroke:none;fill-rule:evenodd;fill:rgb(12.156863%,12.156863%,12.156863%);fill-opacity:0.101961;" d="M 333.730469 79.128906 L 465.921875 58.226562 L 465.921875 438.316406 L 333.730469 408.675781 Z M 333.730469 79.128906 "/>
<path style=" stroke:none;fill-rule:evenodd;fill:rgb(12.156863%,12.156863%,12.156863%);fill-opacity:0.101961;" d="M 32.394531 39.753906 L 32.394531 449.003906 L 333.730469 408.675781 L 333.730469 79.128906 Z M 32.394531 39.753906 "/>
<path style=" stroke:none;fill-rule:evenodd;fill:rgb(12.156863%,12.156863%,12.156863%);fill-opacity:0.101961;" d="M 32.394531 449.003906 L 143.277344 495.203125 L 465.921875 438.316406 L 333.730469 408.675781 Z M 32.394531 449.003906 "/>
<path style=" stroke:none;fill-rule:evenodd;fill:rgb(12.156863%,12.156863%,12.156863%);fill-opacity:0.101961;" d="M 32.394531 39.753906 L 143.277344 5.007812 L 465.921875 58.226562 L 333.730469 79.128906 Z M 32.394531 39.753906 "/>
<path style=" stroke:none;fill-rule:evenodd;fill:rgb(94.901961%,94.901961%,94.901961%);fill-opacity:1;" d="M 143.277344 5.007812 L 143.277344 495.203125 L 465.921875 438.316406 L 465.921875 58.226562 Z M 143.277344 5.007812 "/>
<path style=" stroke:none;fill-rule:evenodd;fill:rgb(94.901961%,94.901961%,94.901961%);fill-opacity:1;" d="M 32.394531 39.753906 L 143.277344 5.007812 L 143.277344 495.203125 L 32.394531 449.003906 Z M 32.394531 39.753906 "/>
<path style=" stroke:none;fill-rule:nonzero;fill:rgb(0%,0%,0%);fill-opacity:1;" d="M 199.703125 207.890625 L 199.703125 68.976562 C 216.605469 68.628906 228.332031 70.507812 235.78125 76.90625 C 244.582031 84.464844 247.53125 97.988281 247.347656 116.695312 C 247.164062 135.390625 247.445312 155.515625 247.53125 171.792969 C 247.640625 191.664062 248.066406 206.734375 225.386719 207.761719 C 216.144531 208.117188 208.734375 207.933594 199.703125 207.890625 Z M 232.808594 235.726562 C 237.722656 235.261719 242.742188 234.59375 245.660156 232.910156 C 261.8125 223.601562 271.609375 213.035156 271.609375 171.859375 L 271.609375 125.78125 C 271.609375 113.09375 272.171875 100.496094 269.621094 88.0625 C 268.339844 81.828125 268.046875 79.769531 263.269531 70.070312 C 256.90625 57.152344 241.710938 42.445312 223.050781 39.421875 C 204.304688 36.386719 187.261719 32.4375 170.628906 30.683594 L 170.628906 236.429688 C 190.238281 236.566406 212.222656 237.675781 232.808594 235.726562 Z M 450.960938 206.167969 C 451.5 203.714844 453.105469 186.042969 450.140625 176.644531 C 446.839844 166.191406 443.269531 157.933594 436.199219 150.378906 C 428.675781 142.335938 418.964844 135.460938 410.765625 129.34375 C 403.679688 124.058594 396.285156 117.675781 396.757812 108.132812 C 397.1875 99.351562 402.890625 95.457031 410.828125 94.898438 C 417.835938 94.40625 425.867188 99.273438 433.222656 103.566406 C 433.222656 103.566406 438.308594 87.273438 440.996094 80.164062 C 440.996094 80.164062 436.421875 76.855469 433.917969 75.589844 C 427.042969 72.105469 419.351562 68.628906 412.226562 68.03125 C 407.457031 67.632812 398.488281 68.046875 392.203125 72.269531 C 384.425781 77.492188 380.683594 82.96875 379.199219 85.558594 C 375.703125 91.648438 374.683594 99.597656 374.402344 104.660156 C 373.886719 114.046875 376.839844 124.03125 379.902344 130.265625 C 383.265625 137.109375 386.761719 140.609375 388.640625 142.574219 C 397.988281 152.359375 412.375 158.367188 420.25 167.078125 C 424.21875 171.464844 430.285156 178.929688 430.972656 184.820312 C 432.65625 199.292969 428.988281 215.089844 413.769531 214.703125 C 396.527344 214.261719 393.636719 200.84375 391.710938 190.941406 C 383.886719 191.816406 377.496094 192.25 370.742188 193.25 C 371.019531 197.933594 371.171875 203.210938 372.253906 207.296875 C 374.957031 217.515625 380.589844 226.253906 388.816406 231.632812 C 397.175781 237.101562 403.320312 240.34375 413.1875 240.371094 C 434.355469 240.433594 446.960938 224.226562 450.960938 206.167969 Z M 304.355469 184.605469 L 304.355469 106.171875 C 304.355469 91.46875 311.789062 82.722656 324.550781 84.113281 C 337.296875 85.503906 345.140625 96.367188 345.140625 111.074219 L 345.140625 189.507812 C 345.140625 201.738281 336.851562 211.757812 324.550781 211.074219 C 306.90625 210.09375 304.355469 197.347656 304.355469 184.605469 Z M 366.710938 191.113281 L 366.710938 115.976562 C 366.710938 89.164062 357.117188 58.144531 324.550781 53.476562 C 290.417969 48.582031 280.925781 76.761719 280.925781 101.269531 L 280.925781 179.703125 C 280.925781 218.132812 293.894531 237.859375 324.550781 239.507812 C 351.023438 240.929688 366.710938 216.839844 366.710938 191.113281 Z M 363.558594 435.496094 L 373.117188 433.960938 C 373.117188 433.960938 397.433594 381.472656 409.90625 355.820312 C 412.890625 361.828125 440.46875 421.898438 440.46875 421.898438 L 449.230469 419.832031 C 449.230469 419.832031 415.871094 348.3125 414.378906 345.308594 C 426.488281 319.082031 450.160156 266.464844 450.160156 266.464844 L 441.960938 265.710938 C 441.960938 265.710938 410.652344 334.042969 409.90625 335.546875 C 409.164062 334.042969 378.601562 267.214844 378.601562 267.214844 L 370.402344 267.214844 C 370.402344 267.214844 403.945312 342.304688 405.4375 345.308594 C 391.535156 375.394531 378.0625 405.695312 363.558594 435.496094 Z M 289.257812 408.132812 C 289.160156 405.769531 289.257812 323.820312 289.257812 321.859375 C 289.257812 307.152344 291.726562 292.140625 302.304688 283.132812 C 309.226562 277.964844 316.558594 274.863281 324.550781 275.136719 C 345.574219 275.859375 354.945312 292.449219 354.945312 316.957031 L 354.945312 384.53125 C 354.945312 408.132812 353.367188 410.90625 346.238281 420.601562 C 342.554688 425.183594 337.441406 428.8125 333.242188 430.890625 C 329.03125 432.957031 327.085938 433.386719 322.714844 433.84375 C 318.34375 434.300781 315.269531 434.742188 308.246094 432.558594 C 296.324219 428.859375 289.816406 421.363281 289.257812 408.132812 Z M 343.246094 435.945312 C 358.402344 424.007812 363.769531 405.238281 363.769531 388.527344 L 363.769531 314.996094 C 363.769531 295.363281 361.195312 283.238281 346.007812 271.273438 C 339.398438 266.425781 332.855469 264.605469 324.558594 264.734375 C 307.886719 264.996094 298.855469 270.46875 291.695312 279.03125 C 282.3125 290.597656 280.433594 307.601562 280.433594 321.859375 L 280.433594 409.113281 C 280.433594 423.820312 290.753906 441.519531 310.050781 444.269531 C 322.265625 445.382812 333.914062 443.121094 343.246094 435.945312 Z M 199.703125 349.8125 L 199.703125 301.753906 C 219.933594 301.191406 237.296875 300.414062 237.296875 322.839844 C 237.296875 345.386719 220.257812 349.917969 199.703125 349.8125 Z M 199.703125 378.722656 L 227.738281 378.582031 C 233.917969 378.550781 240.175781 383.023438 242.78125 387.4375 C 244.0625 389.605469 245.242188 394.394531 245.464844 401.15625 C 245.640625 406.40625 245.53125 410.679688 244.269531 415.207031 C 241.8125 424.003906 233.691406 428.613281 225.640625 431.160156 C 217.703125 433.671875 205.925781 435.585938 199.703125 436.164062 C 199.703125 417.476562 199.703125 396.03125 199.703125 378.722656 Z M 231.601562 457.328125 C 242.105469 454.726562 252.445312 448.394531 259.117188 441.25 C 264.703125 435.269531 268.300781 427.441406 270.601562 420.320312 C 272.976562 412.984375 273.570312 406.171875 273.570312 398.328125 C 273.570312 394.085938 273.078125 386.644531 271.886719 380.828125 C 269.128906 367.324219 262.296875 360.140625 252.003906 354.210938 C 252.796875 352.824219 257.675781 347.925781 261.839844 337.464844 C 266.007812 327 265.730469 321.03125 265.730469 315.976562 C 265.730469 302.609375 262.816406 289.15625 252.550781 281.726562 C 244.945312 276.21875 240.226562 273.117188 226.222656 271.832031 C 212.214844 270.542969 191.425781 271.511719 170.628906 271.722656 L 170.628906 466.957031 C 191.601562 463.867188 213.269531 461.863281 231.601562 457.328125 Z M 231.601562 457.328125 "/>
<path style=" stroke:none;fill-rule:nonzero;fill:rgb(0%,61.568627%,100%);fill-opacity:1;" d="M 32.394531 39.753906 L 143.277344 5.007812 L 143.179688 141.46875 L 32.394531 153.570312 Z M 32.394531 39.753906 "/>
<path style=" stroke:none;fill-rule:nonzero;fill:rgb(0%,100%,1.568627%);fill-opacity:1;" d="M 32.394531 153.570312 L 32.394531 245.609375 L 143.136719 250.980469 L 143.179688 141.46875 Z M 32.394531 153.570312 "/>
<path style=" stroke:none;fill-rule:nonzero;fill:rgb(100%,98.039216%,0%);fill-opacity:1;" d="M 32.394531 245.609375 L 32.394531 347.347656 L 143.289062 374.355469 L 143.136719 250.980469 Z M 32.394531 245.609375 "/>
<path style=" stroke:none;fill-rule:nonzero;fill:rgb(100%,0%,20.784314%);fill-opacity:1;" d="M 32.394531 449.308594 L 32.394531 347.347656 L 143.289062 374.355469 L 143.28125 495.203125 Z M 32.394531 449.308594 "/>
</g>
</svg>
