<?xml version="1.0" encoding="UTF-8" standalone="no"?>
<svg
   width="96"
   height="96"
   viewBox="0 0 25.399999 25.399999"
   version="1.1"
   id="svg5155"
   sodipodi:docname="dosbox-staging-no-border.svg"
   inkscape:version="1.2.2 (b0a8486541, 2022-12-01)"
   xmlns:inkscape="http://www.inkscape.org/namespaces/inkscape"
   xmlns:sodipodi="http://sodipodi.sourceforge.net/DTD/sodipodi-0.dtd"
   xmlns="http://www.w3.org/2000/svg"
   xmlns:svg="http://www.w3.org/2000/svg"
   xmlns:rdf="http://www.w3.org/1999/02/22-rdf-syntax-ns#"
   xmlns:cc="http://creativecommons.org/ns#"
   xmlns:dc="http://purl.org/dc/elements/1.1/">
  <defs
     id="defs5149" />
  <sodipodi:namedview
     inkscape:deskcolor="#d1d1d1"
     inkscape:showpageshadow="2"
     id="base"
     pagecolor="#ffffff"
     bordercolor="#666666"
     borderopacity="1.0"
     inkscape:pageopacity="0.0"
     inkscape:pageshadow="2"
     inkscape:zoom="8"
     inkscape:cx="43.75"
     inkscape:cy="67.75"
     inkscape:document-units="px"
     inkscape:current-layer="layer3"
     showgrid="false"
     units="px"
     inkscape:pagecheckerboard="true"
     inkscape:window-width="2560"
     inkscape:window-height="1403"
     inkscape:window-x="1920"
     inkscape:window-y="0"
     inkscape:window-maximized="1"
     showguides="true"
     inkscape:document-rotation="0"
     inkscape:lockguides="false">
    <inkscape:grid
       id="grid851"
       type="xygrid"
       originx="12.7"
       originy="12.7" />
  </sodipodi:namedview>
  <metadata
     id="metadata5152">
    <rdf:RDF>
      <cc:Work
         rdf:about="">
        <dc:format>image/svg+xml</dc:format>
        <dc:type
           rdf:resource="http://purl.org/dc/dcmitype/StillImage" />
        <cc:license
           rdf:resource="http://creativecommons.org/licenses/by-sa/4.0/" />
      </cc:Work>
      <cc:License
         rdf:about="http://creativecommons.org/licenses/by-sa/4.0/">
        <cc:permits
           rdf:resource="http://creativecommons.org/ns#Reproduction" />
        <cc:permits
           rdf:resource="http://creativecommons.org/ns#Distribution" />
        <cc:requires
           rdf:resource="http://creativecommons.org/ns#Notice" />
        <cc:requires
           rdf:resource="http://creativecommons.org/ns#Attribution" />
        <cc:permits
           rdf:resource="http://creativecommons.org/ns#DerivativeWorks" />
        <cc:requires
           rdf:resource="http://creativecommons.org/ns#ShareAlike" />
      </cc:License>
    </rdf:RDF>
  </metadata>
  <g
     inkscape:groupmode="layer"
     id="layer3"
     inkscape:label="Icon"
     style="display:inline">
    <path
       id="path868-3-4"
       style="display:inline;fill:#f2f2f2;fill-opacity:1;fill-rule:evenodd;stroke:none;stroke-width:0.79375;stroke-linejoin:round;stroke-miterlimit:4;stroke-dasharray:none;stroke-opacity:1;paint-order:markers fill stroke"
       d="M 8.8098206,2.7152184 7.3210225,5.0737312 V 19.625815 l 1.4890881,2.99282 0.05397,-0.0097 13.0090214,-2.299921 V 4.8763266 Z"
       sodipodi:nodetypes="cccccccc" />
    <path
       style="display:inline;opacity:1;fill:#000000;fill-opacity:1;stroke:none;stroke-width:0.149976"
       d="M 11.142841,10.952912 V 5.3125969 c 0.683836,-0.014022 1.158164,0.062242 1.459479,0.3220168 0.355968,0.306892 0.475339,0.856045 0.467895,1.615485 -0.0075,0.759198 0.0039,1.576263 0.0074,2.237239 0.0043,0.8066723 0.02156,1.4185673 -0.895851,1.4603703 -0.373779,0.01443 -0.673648,0.007 -1.038965,0.0052 z m 1.339288,1.130186 c 0.198762,-0.01889 0.401808,-0.046 0.519817,-0.114273 0.653424,-0.378034 1.049739,-0.807001 1.049739,-2.4788773 v -1.870908 c 0,-0.515093 0.02268,-1.02659 -0.08053,-1.531427 C 13.91941,5.8345177 13.907546,5.7508385 13.714269,5.3570875 13.456807,4.8325805 12.842245,4.2353881 12.087404,4.1127142 11.328999,3.9894611 10.639551,3.8290137 9.9668602,3.7578025 v 8.3538105 c 0.7931658,0.0056 1.6825208,0.05063 2.5152688,-0.02851 z m 8.824503,-1.200163 c 0.02195,-0.09954 0.08689,-0.817054 -0.03313,-1.1987302 C 21.140024,9.2597507 20.995537,8.9245758 20.709549,8.6177487 20.40523,8.2912538 20.01245,8.0121118 19.680678,7.7637277 19.394044,7.5491367 19.095036,7.2899587 19.114043,6.9025218 c 0.0175,-0.356639 0.248126,-0.514693 0.569158,-0.537389 0.283468,-0.02004 0.60838,0.177628 0.90595,0.351946 0,0 0.205703,-0.661507 0.31443,-0.9501714 0,0 -0.184958,-0.1342934 -0.286285,-0.1858263 -0.278148,-0.1414598 -0.589207,-0.282615 -0.877524,-0.3068564 -0.192895,-0.016219 -0.555641,6.469e-4 -0.809875,0.1720602 -0.314657,0.2121562 -0.466101,0.4345089 -0.526147,0.5395819 -0.14132,0.24729 -0.18267,0.570075 -0.193955,0.77561 -0.02092,0.381101 0.0985,0.786454 0.222467,1.039649 0.136046,0.277878 0.277532,0.419974 0.353403,0.499701 0.378178,0.397405 0.960124,0.641312 1.278761,0.994958 0.160519,0.178157 0.405937,0.481205 0.433695,0.7203972 0.0682,0.587704 -0.0802,1.229083 -0.695944,1.213313 -0.697396,-0.01786 -0.814305,-0.562619 -0.892249,-0.964683 -0.31643,0.03546 -0.574971,0.05304 -0.848285,0.09361 0.01124,0.190289 0.01751,0.404524 0.06123,0.570402 0.109372,0.41494 0.337183,0.769653 0.669941,0.988115 0.338255,0.222073 0.586765,0.353722 0.985917,0.354847 0.856269,0.0024 1.366196,-0.655522 1.527898,-1.38885 z M 15.37628,10.007433 V 6.8229087 c 0,-0.597099 0.300655,-0.952136 0.816967,-0.895648 0.51556,0.05641 0.832829,0.497582 0.832829,1.094681 v 3.1845243 c 0,0.496625 -0.335281,0.903489 -0.832829,0.875744 C 15.479392,11.0424 15.37628,10.524918 15.37628,10.007433 Z m 2.522283,0.264365 V 7.2209737 c 0,-1.088643 -0.387973,-2.3480801 -1.705316,-2.5376677 -1.380864,-0.198729 -1.764806,0.9454057 -1.764806,1.9405697 v 3.184524 c 0,1.5604173 0.524696,2.3612873 1.764806,2.4282013 1.07078,0.05778 1.705316,-0.920381 1.705316,-1.964803 z m -0.127483,9.92254 0.386738,-0.0624 c 0,0 0.983671,-2.131138 1.48822,-3.172685 0.120614,0.243904 1.236283,2.682978 1.236283,2.682978 l 0.3543,-0.08385 c 0,0 -1.349356,-2.904016 -1.409658,-3.025964 0.489808,-1.064816 1.44735,-3.201279 1.44735,-3.201279 l -0.331686,-0.03048 c 0,0 -1.266434,2.774437 -1.296589,2.835416 -0.03015,-0.06098 -1.266432,-2.774443 -1.266432,-2.774443 l -0.331684,4e-6 c 0,0 1.356889,3.048837 1.4172,3.170792 -0.562259,1.221613 -1.107294,2.451942 -1.694042,3.661909 z m -3.005541,-1.11101 c -0.004,-0.09603 0,-3.423364 0,-3.502976 0,-0.597099 0.09991,-1.206681 0.527772,-1.572458 0.279963,-0.209797 0.576614,-0.33576 0.899891,-0.324619 0.850412,0.02931 1.229459,0.70288 1.229459,1.698043 v 2.74369 c 0,0.95832 -0.06381,1.070867 -0.352124,1.464592 -0.149007,0.186024 -0.355828,0.333399 -0.525719,0.417798 -0.170359,0.0839 -0.249087,0.101242 -0.425872,0.11979 -0.176788,0.01855 -0.301136,0.03651 -0.585326,-0.05206 -0.482209,-0.150287 -0.745496,-0.454661 -0.768081,-0.991798 z m 2.183866,1.129204 c 0.613138,-0.484709 0.830183,-1.246704 0.830183,-1.925335 v -2.985492 c 0,-0.797141 -0.104006,-1.289472 -0.718376,-1.775343 -0.267429,-0.196709 -0.532144,-0.270633 -0.867656,-0.26537 -0.674505,0.01058 -1.03972,0.232736 -1.329472,0.580442 -0.379509,0.469591 -0.455472,1.160087 -0.455472,1.738918 v 3.542782 c 0,0.597099 0.417406,1.315699 1.197963,1.427425 0.494126,0.04524 0.965348,-0.04669 1.34283,-0.338027 z m -5.806564,-3.497199 v -1.951251 c 0.818372,-0.02285 1.520795,-0.0545 1.520795,0.856076 0,0.915551 -0.689329,1.099509 -1.520795,1.095175 z m 9e-6,1.173798 1.134115,-0.0057 c 0.25002,-0.0012 0.503111,0.180307 0.60852,0.359552 0.05182,0.08812 0.09955,0.282506 0.108576,0.556999 0.007,0.213248 0.0027,0.386766 -0.04845,0.570563 -0.09932,0.357152 -0.427897,0.544273 -0.753491,0.647711 -0.321049,0.101995 -0.797557,0.179669 -1.049269,0.203267 -3e-6,-0.758779 3e-6,-1.629531 0,-2.332378 z m 1.290362,3.191613 c 0.424916,-0.105561 0.843123,-0.362769 1.113,-0.652799 0.226002,-0.242879 0.371538,-0.56062 0.464712,-0.849751 0.09603,-0.297985 0.120077,-0.574479 0.120077,-0.892931 0,-0.172355 -0.01999,-0.474403 -0.06809,-0.710604 -0.111653,-0.548279 -0.387966,-0.840028 -0.804397,-1.080691 0.03205,-0.0564 0.229451,-0.25527 0.397946,-0.680037 0.168493,-0.424773 0.157274,-0.667142 0.157274,-0.872419 0,-0.542798 -0.117881,-1.088946 -0.533034,-1.390634 -0.307688,-0.223595 -0.498631,-0.349594 -1.065129,-0.401839 -0.566493,-0.05224 -1.407587,-0.01292 -2.2487168,-0.0043 v 7.926969 C 10.81523,21.346299 11.691626,21.264964 12.433212,21.080732 Z"
       id="path850"
       inkscape:connector-curvature="0"
       sodipodi:nodetypes="ccssscccsssssssccsssssssccssssssssssccsssssssssssssssssscccccccccccccsscssscccsscsscscssccccsccssssscccssscscssssscs"
       inkscape:export-xdpi="37.150002"
       inkscape:export-ydpi="37.150002" />
    <path
       style="fill:#2e93ff;fill-opacity:1;stroke:none;stroke-width:0.0397502px;stroke-linecap:butt;stroke-linejoin:miter;stroke-opacity:1"
       d="m 4.3206569,4.1261876 4.4894207,-1.4108322 -0.004,5.5405883 -4.4854061,0.491363 z"
       id="path833"
       inkscape:connector-curvature="0"
       sodipodi:nodetypes="ccccc" />
    <path
       style="fill:#37eb00;fill-opacity:1;stroke:none;stroke-width:0.0397502px;stroke-linecap:butt;stroke-linejoin:miter;stroke-opacity:1"
       d="m 4.3206504,8.7473067 -2.9e-6,3.7370343 4.4836881,0.218143 0.0017,-4.4465392 z"
       id="path835"
       inkscape:connector-curvature="0"
       sodipodi:nodetypes="ccccc" />
    <path
       style="fill:#ffef0a;fill-opacity:1;stroke:none;stroke-width:0.0397502px;stroke-linecap:butt;stroke-linejoin:miter;stroke-opacity:1"
       d="m 4.3206475,12.484341 v 4.13098 l 4.4899131,1.096564 -0.0062,-5.009401 z"
       id="path837"
       inkscape:connector-curvature="0"
       sodipodi:nodetypes="ccccc" />
    <path
       style="fill:#ff291a;fill-opacity:1;stroke:none;stroke-width:0.0397502px;stroke-linecap:butt;stroke-linejoin:miter;stroke-opacity:1"
       d="m 4.3206475,20.755204 v -4.139883 l 4.4899131,1.096564 -4.5e-4,4.90675 z"
       id="path839"
       inkscape:connector-curvature="0"
       sodipodi:nodetypes="ccccc" />
  </g>
</svg>
