<?xml version="1.0" encoding="UTF-8" standalone="no"?>
<!-- Created with Inkscape (http://www.inkscape.org/) -->

<svg
   width="17.552462mm"
   height="19.90328mm"
   viewBox="0 0 17.552462 19.90328"
   version="1.1"
   id="svg336"
   inkscape:version="1.2.2 (b0a84865, 2022-12-01)"
   sodipodi:docname="dosbox-staging-nobg.svg"
   xmlns:inkscape="http://www.inkscape.org/namespaces/inkscape"
   xmlns:sodipodi="http://sodipodi.sourceforge.net/DTD/sodipodi-0.dtd"
   xmlns="http://www.w3.org/2000/svg"
   xmlns:svg="http://www.w3.org/2000/svg">
  <sodipodi:namedview
     id="namedview338"
     pagecolor="#ffffff"
     bordercolor="#000000"
     borderopacity="0.25"
     inkscape:showpageshadow="2"
     inkscape:pageopacity="0.0"
     inkscape:pagecheckerboard="0"
     inkscape:deskcolor="#d1d1d1"
     inkscape:document-units="mm"
     showgrid="false"
     inkscape:zoom="1.1893044"
     inkscape:cx="49.60883"
     inkscape:cy="52.131313"
     inkscape:window-width="1638"
     inkscape:window-height="822"
     inkscape:window-x="0"
     inkscape:window-y="38"
     inkscape:window-maximized="0"
     inkscape:current-layer="layer1" />
  <defs
     id="defs333" />
  <g
     inkscape:label="Layer 1"
     inkscape:groupmode="layer"
     id="layer1"
     transform="translate(-96.306398,-138.54836)">
    <path
       d="m 96.306407,139.95919 v 16.61659 l 12.200303,-1.63737 v -13.38052 z"
       style="display:inline;fill:#1f1f1f;fill-opacity:0.1;fill-rule:evenodd;stroke:none;stroke-width:0.150237;stroke-linejoin:round"
       id="path860"
       inkscape:connector-curvature="0" />
    <path
       d="m 96.306407,156.57578 4.489423,1.87586 13.06303,-2.30985 -5.35215,-1.20338 z"
       style="display:inline;fill:#1f1f1f;fill-opacity:0.1;fill-rule:evenodd;stroke:none;stroke-width:0.150237;stroke-linejoin:round"
       id="path862"
       inkscape:connector-curvature="0" />
    <path
       d="m 108.50671,141.55789 5.35215,-0.84874 v 15.43264 l -5.35215,-1.20338 z"
       style="display:inline;fill:#1f1f1f;fill-opacity:0.1;fill-rule:evenodd;stroke:none;stroke-width:0.150237;stroke-linejoin:round"
       id="path864"
       inkscape:connector-curvature="0" />
    <path
       d="m 96.306407,139.95919 4.489423,-1.41083 13.06303,2.16079 -5.35215,0.84874 z"
       style="display:inline;fill:#1f1f1f;fill-opacity:0.1;fill-rule:evenodd;stroke:none;stroke-width:0.150237;stroke-linejoin:round"
       id="path866"
       inkscape:connector-curvature="0" />
    <path
       d="m 100.79583,138.54836 v 19.90328 l 13.06303,-2.30985 v -15.43264 z"
       style="display:inline;fill:#f2f2f2;fill-opacity:1;fill-rule:evenodd;stroke:none;stroke-width:0.150237;stroke-linejoin:round"
       id="path868"
       inkscape:connector-curvature="0" />
    <path
       d="m 96.306407,139.95919 4.489423,-1.41083 v 19.90328 l -4.489423,-1.87586 z"
       style="display:inline;fill:#f2f2f2;fill-opacity:1;fill-rule:evenodd;stroke:none;stroke-width:0.150237;stroke-linejoin:round"
       id="path870"
       inkscape:connector-curvature="0" />
    <path
       inkscape:export-ydpi="37.150002"
       inkscape:export-xdpi="37.150002"
       sodipodi:nodetypes="ccssscccsssssssccsssssssccssssssssssccsssssssssssssssssscccccccccccccsscssscccsscsscscssccccsccssssscccssscscssssscs"
       inkscape:connector-curvature="0"
       id="path850"
       d="m 103.12859,146.78592 v -5.64032 c 0.68384,-0.014 1.15817,0.0622 1.45948,0.32202 0.35597,0.30689 0.47534,0.85604 0.4679,1.61548 -0.008,0.7592 0.004,1.57627 0.007,2.23724 0.004,0.80667 0.0216,1.41857 -0.89586,1.46037 -0.37377,0.0144 -0.67364,0.007 -1.03896,0.005 z m 1.33929,1.13018 c 0.19876,-0.0189 0.40181,-0.046 0.51982,-0.11427 0.65342,-0.37803 1.04974,-0.807 1.04974,-2.47888 v -1.87091 c 0,-0.51509 0.0227,-1.02659 -0.0805,-1.53142 -0.0517,-0.2531 -0.0636,-0.33678 -0.25689,-0.73053 -0.25746,-0.5245 -0.87202,-1.1217 -1.62687,-1.24437 -0.7584,-0.12325 -1.44785,-0.2837 -2.12054,-0.35491 v 8.35381 c 0.79317,0.006 1.68252,0.0506 2.51527,-0.0285 z m 8.8245,-1.20016 c 0.022,-0.0995 0.0869,-0.81705 -0.0331,-1.19873 -0.13348,-0.42445 -0.27796,-0.75963 -0.56395,-1.06646 -0.30432,-0.32649 -0.6971,-0.60563 -1.02887,-0.85402 -0.28664,-0.21459 -0.58564,-0.47377 -0.56664,-0.8612 0.0175,-0.35664 0.24813,-0.5147 0.56916,-0.53739 0.28347,-0.02 0.60838,0.17763 0.90595,0.35194 0,0 0.2057,-0.6615 0.31443,-0.95017 0,0 -0.18496,-0.13429 -0.28628,-0.18582 -0.27815,-0.14146 -0.58921,-0.28262 -0.87753,-0.30686 -0.19289,-0.0162 -0.55564,6.5e-4 -0.80987,0.17206 -0.31466,0.21216 -0.4661,0.43451 -0.52615,0.53958 -0.14132,0.24729 -0.18267,0.57008 -0.19395,0.77561 -0.0209,0.3811 0.0985,0.78646 0.22246,1.03965 0.13605,0.27788 0.27753,0.41997 0.35341,0.4997 0.37817,0.39741 0.96012,0.64131 1.27876,0.99496 0.16052,0.17816 0.40593,0.4812 0.43369,0.7204 0.0682,0.5877 -0.0802,1.22908 -0.69594,1.21331 -0.6974,-0.0179 -0.81431,-0.56262 -0.89225,-0.96468 -0.31643,0.0355 -0.57497,0.053 -0.84829,0.0936 0.0112,0.19029 0.0175,0.40452 0.0612,0.5704 0.10938,0.41494 0.33719,0.76965 0.66994,0.98811 0.33826,0.22208 0.58677,0.35373 0.98592,0.35485 0.85627,0.002 1.3662,-0.65552 1.5279,-1.38885 z m -5.93035,-0.8755 v -3.18453 c 0,-0.5971 0.30066,-0.95213 0.81697,-0.89564 0.51556,0.0564 0.83283,0.49758 0.83283,1.09468 v 3.18452 c 0,0.49663 -0.33528,0.90349 -0.83283,0.87574 -0.71386,-0.0398 -0.81697,-0.55729 -0.81697,-1.07477 z m 2.52228,0.26436 v -3.05082 c 0,-1.08864 -0.38797,-2.34808 -1.70531,-2.53767 -1.38087,-0.19873 -1.76481,0.94541 -1.76481,1.94057 v 3.18452 c 0,1.56042 0.5247,2.36129 1.76481,2.42821 1.07078,0.0578 1.70531,-0.92039 1.70531,-1.96481 z m -0.12748,9.92254 0.38674,-0.0624 c 0,0 0.98367,-2.13114 1.48822,-3.17268 0.12061,0.2439 1.23628,2.68298 1.23628,2.68298 l 0.3543,-0.0839 c 0,0 -1.34935,-2.90402 -1.40966,-3.02597 0.48981,-1.06481 1.44735,-3.20128 1.44735,-3.20128 l -0.33168,-0.0305 c 0,0 -1.26644,2.77444 -1.29659,2.83542 -0.0301,-0.061 -1.26643,-2.77444 -1.26643,-2.77444 h -0.33169 c 0,0 1.35689,3.04884 1.4172,3.17079 -0.56226,1.22161 -1.10729,2.45194 -1.69404,3.66191 z m -3.00554,-1.11101 c -0.004,-0.096 0,-3.42336 0,-3.50297 0,-0.5971 0.0999,-1.20668 0.52777,-1.57246 0.27996,-0.2098 0.57662,-0.33576 0.89989,-0.32462 0.85041,0.0293 1.22946,0.70288 1.22946,1.69804 v 2.74369 c 0,0.95832 -0.0638,1.07087 -0.35212,1.46459 -0.14901,0.18603 -0.35583,0.3334 -0.52572,0.4178 -0.17036,0.0839 -0.24909,0.10124 -0.42587,0.11979 -0.17679,0.0185 -0.30114,0.0365 -0.58533,-0.0521 -0.48221,-0.15028 -0.7455,-0.45466 -0.76808,-0.9918 z m 2.18387,1.12921 c 0.61313,-0.48471 0.83018,-1.24671 0.83018,-1.92534 v -2.98549 c 0,-0.79714 -0.10401,-1.28947 -0.71838,-1.77534 -0.26743,-0.19671 -0.53214,-0.27064 -0.86765,-0.26537 -0.67451,0.0106 -1.03972,0.23273 -1.32948,0.58044 -0.3795,0.46959 -0.45547,1.16009 -0.45547,1.73892 v 3.54278 c 0,0.5971 0.41741,1.3157 1.19797,1.42742 0.49412,0.0452 0.96534,-0.0467 1.34283,-0.33802 z m -5.80657,-3.4972 v -1.95125 c 0.81837,-0.0229 1.5208,-0.0545 1.5208,0.85607 0,0.91555 -0.68933,1.09951 -1.5208,1.09518 z m 1e-5,1.1738 1.13412,-0.006 c 0.25002,-0.001 0.50311,0.1803 0.60852,0.35955 0.0518,0.0881 0.0995,0.2825 0.10857,0.557 0.007,0.21324 0.003,0.38676 -0.0485,0.57056 -0.0993,0.35715 -0.4279,0.54427 -0.75349,0.64771 -0.32105,0.102 -0.79756,0.17967 -1.04927,0.20327 0,-0.75878 0,-1.62953 0,-2.33238 z m 1.29036,3.19161 c 0.42492,-0.10556 0.84313,-0.36277 1.113,-0.6528 0.226,-0.24288 0.37154,-0.56062 0.46471,-0.84975 0.096,-0.29799 0.12008,-0.57448 0.12008,-0.89293 0,-0.17236 -0.02,-0.47441 -0.0681,-0.71061 -0.11165,-0.54828 -0.38796,-0.84002 -0.8044,-1.08069 0.032,-0.0564 0.22946,-0.25527 0.39795,-0.68003 0.16849,-0.42478 0.15727,-0.66715 0.15727,-0.87242 0,-0.5428 -0.11788,-1.08895 -0.53303,-1.39064 -0.30769,-0.22359 -0.49863,-0.34959 -1.06513,-0.40184 -0.56649,-0.0522 -1.40759,-0.0129 -2.24872,-0.004 v 7.92697 c 0.84838,-0.12541 1.72478,-0.20674 2.46636,-0.39097 z"
       style="display:inline;fill:#000000;fill-opacity:1;stroke:none;stroke-width:0.149976" />
    <path
       sodipodi:nodetypes="ccccc"
       inkscape:connector-curvature="0"
       id="path833"
       d="m 96.306407,139.95919 4.489423,-1.41083 -0.004,5.54059 -4.485408,0.49136 z"
       style="fill:#009dff;fill-opacity:1;stroke:none;stroke-width:0.0397502px;stroke-linecap:butt;stroke-linejoin:miter;stroke-opacity:1" />
    <path
       sodipodi:nodetypes="ccccc"
       inkscape:connector-curvature="0"
       id="path835"
       d="m 96.306401,144.58031 -3e-6,3.73704 4.483692,0.21814 0.002,-4.44654 z"
       style="fill:#00ff04;fill-opacity:1;stroke:none;stroke-width:0.0397502px;stroke-linecap:butt;stroke-linejoin:miter;stroke-opacity:1" />
    <path
       sodipodi:nodetypes="ccccc"
       inkscape:connector-curvature="0"
       id="path837"
       d="m 96.306398,148.31735 v 4.13098 l 4.489912,1.09656 -0.006,-5.0094 z"
       style="fill:#fffa00;fill-opacity:1;stroke:none;stroke-width:0.0397502px;stroke-linecap:butt;stroke-linejoin:miter;stroke-opacity:1" />
    <path
       sodipodi:nodetypes="ccccc"
       inkscape:connector-curvature="0"
       id="path839"
       d="m 96.306398,156.58821 v -4.13988 l 4.489912,1.09656 -4.5e-4,4.90675 z"
       style="fill:#ff0035;fill-opacity:1;stroke:none;stroke-width:0.0397502px;stroke-linecap:butt;stroke-linejoin:miter;stroke-opacity:1" />
  </g>
</svg>
