<svg xmlns="http://www.w3.org/2000/svg" viewBox="0 0 24.342 24.342"><path fill="#f2f2f2" fill-rule="evenodd" stroke="#000" stroke-linejoin="round" stroke-width=".853" d="M8.16 1.485 3.337 3v17.866l4.88 1.991 13.977-2.47V3.806Z" paint-order="markers fill stroke"/><path fill="#f2f2f2" fill-rule="evenodd" d="m8.16 1.485-1.6 2.534v15.633l1.6 3.215.058-.01 13.976-2.47V3.806Z" paint-order="markers fill stroke"/><path d="M10.666 10.335v-6.06c.735-.015 1.244.067 1.568.346.382.33.51.92.503 1.736-.008.815.004 1.693.008 2.403.004.867.023 1.524-.963 1.57-.401.015-.724.007-1.116.005m1.439 1.214c.213-.02.431-.05.558-.123.702-.406 1.128-.867 1.128-2.663v-2.01c0-.553.024-1.103-.086-1.645-.056-.272-.069-.362-.276-.785-.277-.564-.937-1.205-1.748-1.337-.815-.132-1.556-.305-2.278-.381v8.974c.852.007 1.807.055 2.702-.03m9.48-1.29c.024-.106.094-.877-.035-1.287-.144-.456-.299-.816-.606-1.146-.327-.35-.75-.65-1.106-.918-.308-.23-.629-.509-.608-.925.018-.383.266-.553.611-.577.305-.022.654.19.973.378 0 0 .221-.71.338-1.02 0 0-.199-.145-.307-.2-.3-.152-.633-.304-.943-.33-.207-.018-.597 0-.87.185-.338.228-.5.467-.565.58-.152.265-.197.612-.209.833-.022.41.106.845.24 1.117.145.298.297.45.379.536.406.427 1.031.69 1.374 1.07.172.19.436.516.466.773.073.632-.087 1.32-.748 1.304-.75-.02-.875-.605-.959-1.037-.34.039-.617.057-.911.101.012.204.019.435.066.613.117.446.362.827.72 1.061.363.239.63.38 1.059.382.92.002 1.467-.705 1.641-1.493m-6.37-.94V5.898c0-.642.322-1.023.877-.963.554.061.894.535.894 1.177v3.42c0 .534-.36.971-.894.942-.767-.043-.878-.6-.878-1.155m2.709.284V6.325c0-1.17-.417-2.522-1.832-2.726-1.484-.213-1.896 1.016-1.896 2.085v3.421c0 1.676.563 2.537 1.896 2.609 1.15.062 1.832-.989 1.832-2.111m-.137 10.66.415-.067s1.057-2.29 1.6-3.409c.129.262 1.327 2.883 1.327 2.883l.381-.09s-1.45-3.12-1.514-3.251c.526-1.144 1.554-3.44 1.554-3.44l-.356-.032s-1.36 2.98-1.393 3.046c-.032-.065-1.36-2.98-1.36-2.98h-.357s1.458 3.275 1.523 3.406c-.604 1.312-1.19 2.634-1.82 3.934m-3.23-1.194c-.003-.103 0-3.677 0-3.763 0-.641.108-1.296.568-1.69.3-.225.62-.36.967-.348.913.031 1.32.755 1.32 1.824v2.948c0 1.03-.068 1.15-.378 1.573-.16.2-.382.358-.565.45-.183.09-.267.108-.457.128s-.324.039-.629-.056c-.518-.162-.8-.489-.825-1.066m2.347 1.213c.659-.52.892-1.339.892-2.068v-3.207c0-.857-.112-1.386-.772-1.908-.287-.211-.571-.29-.932-.285-.725.012-1.117.25-1.428.624-.408.504-.49 1.246-.49 1.868v3.806c0 .642.449 1.414 1.287 1.534.531.048 1.038-.05 1.443-.364m-6.238-3.757V14.43c.88-.024 1.634-.058 1.634.92 0 .983-.74 1.181-1.634 1.176m0 1.261 1.218-.006c.269-.001.54.194.654.386.056.095.107.304.117.599a2 2 0 0 1-.052.613c-.107.384-.46.585-.81.696-.345.11-.857.193-1.127.218zm1.386 3.43c.457-.114.906-.39 1.196-.702.243-.261.4-.602.5-.913.102-.32.128-.617.128-.96 0-.184-.021-.509-.073-.763-.12-.589-.417-.902-.864-1.16.034-.061.246-.275.427-.731.181-.457.17-.717.17-.938 0-.583-.127-1.17-.573-1.494-.33-.24-.536-.375-1.145-.431-.608-.056-1.512-.014-2.415-.005v8.516c.911-.135 1.853-.222 2.65-.42"/><path fill="#2e93ff" d="M3.337 3 8.16 1.486l-.004 5.952-4.82.528Z"/><path fill="#37eb00" d="M3.337 7.965v4.015l4.817.234.002-4.777z"/><path fill="#ffef0a" d="M3.337 11.98v4.438l4.823 1.178-.006-5.382z"/><path fill="#ff291a" d="M3.337 20.865v-4.447l4.823 1.178v5.271z"/></svg>